<?xml version="1.0" encoding="utf-8"?>
<!-- Generator: Adobe Illustrator 16.0.0, SVG Export Plug-In . SVG Version: 6.00 Build 0)  -->
<!DOCTYPE svg PUBLIC "-//W3C//DTD SVG 1.1//EN" "http://www.w3.org/Graphics/SVG/1.1/DTD/svg11.dtd">
<svg version="1.1" id="Layer_1" xmlns="http://www.w3.org/2000/svg" xmlns:xlink="http://www.w3.org/1999/xlink" x="0px" y="0px"
	 width="599.139px" height="256.6px" viewBox="0 0 599.139 256.6" enable-background="new 0 0 599.139 256.6" xml:space="preserve">
<path fill="#FFFFFF" d="M168.798,49.236c0,0-38.26,8.014-47.362,52.097c-9.106,44.084,21.856,67.771,29.146,68.852
	c7.286,1.093,16.755,1.459,22.946-11.65c6.195-13.117-10.565-26.962-11.293-39.344c-0.728-12.399-0.365-14.209,2.556-25.506
	c2.912-11.299,4.007-18.212,5.463-31.702C171.709,48.509,172.958,48.635,168.798,49.236"/>
<path fill="#FFFFFF" d="M136.996,155.062c1.249,0.703,3.348,2.626,2.645,3.234c0.736-0.634,0.753-0.628,2.572,0.245
	c-0.499,0.474,0.936,1.456,1.777,2.14c-0.355-0.962-1.281-1.734-2.869-3.653c-2.713-0.618-3.994-5.706-6.402-6.569
	C135.35,151.907,135.404,153.837,136.996,155.062"/>
<path fill="#FFFFFF" d="M141.734,165.75l0.538-0.083l-3.714-2.37C139.458,163.653,141.874,165.356,141.734,165.75"/>
<path fill="#FFFFFF" d="M154.695,169.993c-0.432,0.676,1.777,1.207,1.759,1.836c-0.113-1.431,3.547-0.433,5.468-1.296l0.411-1.228
	c-1.934-0.17-6.191,0.855-10.096,0.127L154.695,169.993z"/>
<path fill="#FFFFFF" d="M158.237,170.736l1.155-0.796C158.41,170.203,156.003,170.491,158.237,170.736"/>
<path fill="#FFFFFF" d="M155.627,166.988c-2.722-0.212,1.646,0.549-1.135,0.652C155.444,167.496,156.501,167.503,155.627,166.988"/>
<path fill="#FFFFFF" d="M166.59,165.575c-1.406,1.454-3.119,2.579-5.027,3.385c0.91,0.023,1.68-0.371,2.563-0.56
	C165.176,167.681,165.854,166.513,166.59,165.575"/>
<path fill="#FFFFFF" d="M168.397,167.123c-0.737,0.566-2.066,1.084-1.299,0.025c2.597-0.712,2.382-2.997,4.434-4.146l-1.083,1.877
	c1.101,0.407,1.875-4.137,3.084-3.258c0.445-3.064-2.259,1.168-1.143-2.395c-1.324,3.147-3.181,5.017-5.398,6.617
	c0.876-0.21,1.041-0.524,1.977-1.22c-1.198,1.577-3.126,3.717-5.374,4.75C165.346,169.846,166.446,168.027,168.397,167.123"/>
<path fill="#FFFFFF" d="M174.728,158.356c0.854-2.269,1.636-5.984,0.008-6.542c-0.537,2.31-0.071,2.665,0.258,3.908
	c-0.38,0.651-1.058,2.819-1.413,1.703C173.927,157.17,174.025,159.185,174.728,158.356"/>
<path fill="#FFFFFF" d="M175.853,149.105l-1.405-1.414l0.47,0.976l-0.758,0.269c0.202,0.127,1.667,0.688,1.752,3.124
	C176.424,150.781,175.68,150.399,175.853,149.105"/>
<path fill="#FFFFFF" d="M170.533,149.595c0.208-1.338-0.432-2.037-1.142-3.343c0.969,1.999,1.396,4.675,1.68,5.181l-0.199-0.135
	c-0.191-0.035,1.108,1.786,1.198,3.14C171.921,152.49,172.205,148.597,170.533,149.595"/>
<path fill="#FFFFFF" d="M170.588,151.957l-0.727-1.259L170.588,151.957z"/>
<path fill="#FFFFFF" d="M173.469,142.344c0.454,1.057,0.576,2.292,0.86,3.418l0.051-0.923L173.469,142.344z"/>
<path fill="#FFFFFF" d="M171.727,147.226c-0.625-2.43-0.406,1.533-1.1-0.684c-0.399-0.561,1.266,3.189,1.455,3.282
	C172.412,149.198,170.885,147.716,171.727,147.226"/>
<path fill="#FFFFFF" d="M172.568,140.262l-1.975-2.184L172.568,140.262z"/>
<path fill="#FFFFFF" d="M169.747,133.736l-0.783-0.21c-0.803-2.599-3.351-5.467-2.797-7.728c-0.486,0.693-1.802-0.464-1.091,1.802
	c0.495,0.179,0.795,0.957,1.16,0.637c0.347,0.947-0.208,0.988-0.076,1.681c1.387,1.272,2.2,3.877,3.405,4.851
	c-0.443-0.55-0.405-0.752-0.601-1.243c2.332,2.158,0.41,3.792,2.523,4.153C170.525,136.986,170.64,134.853,169.747,133.736"/>
<path fill="#FFFFFF" d="M166.396,135.854l0.951,2.191c-1.042-0.289-1.43-2.533-2.234-2.533c-0.33,0.35,0.605,2.522-0.079,1.906
	c1.726-0.603,1.628,2.794,2.826,0.763c1.679,2.597-0.521,1.361,0.942,4.119l1.258,0.392
	C168.144,139.744,168.57,138.805,166.396,135.854"/>
<path fill="#FFFFFF" d="M162.41,127.229l0.093-1.337l-0.546,0.914c-2.348-5.61,1.303-9.257,0.652-12.278
	c-1.333-4.021,0.415-7.752,1.024-11.646c-0.347-2.089-0.792,1.786-1.206,1.938c-1.358-0.802,1.023-1.811,0.067-2.919
	c-0.986-0.49-1.921,4.012-2.547,5.847c0.038,1.625,0.428,1.601,0.99,2.091c-0.58,0.38-0.792,2.005-1.346,2.404
	c0.964,3.292-0.674,4.892,0.677,8.216c-0.63,1.152-0.562-2.554-0.504-1.396l0.339,1.879l0.089-0.219
	c1.037,2.563,2.018,6.897,2.243,8.631c-0.249-1.285,0.035-2.318,0.817-1.075l-0.364,1.499l2.605,2.114
	C163.543,130.275,164.114,127.027,162.41,127.229"/>
<path fill="#FFFFFF" d="M162.342,131.139c1.291,3.496,1.01-1.006,2.514,2.758l-2.058-3.706L162.342,131.139z"/>
<path fill="#FFFFFF" d="M160.599,113.019l0.587-1.802C159.903,112.208,161.724,114.991,160.599,113.019"/>
<polygon fill="#FFFFFF" points="160.755,106.326 161.855,107.375 161.343,105.633 "/>
<path fill="#FFFFFF" d="M163.142,100.59c-0.279-1.433-1.147,0.007-1.291,1.582C162.168,100.782,162.828,100.199,163.142,100.59"/>
<path fill="#FFFFFF" d="M167.682,91.584c-0.704,2.954,0.91-2.547,1.438-0.17C168.722,90.897,168.439,89.257,167.682,91.584"/>
<path fill="#FFFFFF" d="M172.532,82.495c0.008,1.143-0.284,1.548-0.589,1.651C172.117,83.349,172.306,82.724,172.532,82.495"/>
<path fill="#FFFFFF" d="M163.662,118.325l0.063,1.025L163.662,118.325z"/>
<path fill="#FFFFFF" d="M163.649,117.642l0.017,0.684L163.649,117.642z"/>
<polygon fill="#FFFFFF" points="168.18,96.645 168.18,96.652 168.016,96.856 "/>
<path fill="#FFFFFF" d="M149.186,170.785c-0.677-0.093-1.075-0.327-1.43-0.487l1.413,0.472L149.186,170.785z"/>
<path fill="#FFFFFF" d="M148.259,168.645c2.255,0.229,1.935,2.666,6.128,2.496c-1.698,0.025-3.276,0.128-5.218-0.372
	C147.35,168.867,150.938,170.862,148.259,168.645"/>
<path fill="#FFFFFF" d="M172.167,155.639l-0.009-0.129C172.175,155.301,172.185,155.41,172.167,155.639"/>
<polygon fill="#FFFFFF" points="133.01,73.245 132.756,73.041 134.457,71.527 "/>
<path fill="#FFFFFF" d="M132.346,73.144l-2.629,2.835c4.025-6.44,9.169-12.186,15.157-16.892l-0.308,0.795
	C144.659,59.552,131.046,72.907,132.346,73.144"/>
<path fill="#FFFFFF" d="M132.104,74.303c-0.033,2.58-2.33,2.8-2.936,5.551c0.38-1.811,0.478-3.274,1.679-4.56L132.104,74.303z"/>
<path fill="#FFFFFF" stroke="#77BC1F" stroke-width="0" stroke-linecap="round" stroke-linejoin="round" d="M130.488,81.91
	c-0.746,0.907-0.852,2.406-1.317,2.895C128.414,83.993,129.934,82.724,130.488,81.91z"/>
<polygon fill="#FFFFFF" points="132.65,86.396 132.434,86.844 132.494,86.303 "/>
<path fill="#FFFFFF" d="M132.494,86.303l-0.407-0.229C132.404,85.839,132.494,85.981,132.494,86.303"/>
<path fill="#FFFFFF" d="M132.438,86.853l-0.105,1.32l0.258-0.39c-0.182,0.62-0.308,1.762-0.623,1.965
	c0.495-1.142,0.304-1.252-0.304-1.565l-0.847,1.87C129.498,89.086,131.499,88.393,132.438,86.853"/>
<path fill="#FFFFFF" stroke="#77BC1F" stroke-width="0" stroke-linecap="round" stroke-linejoin="round" d="M130.339,92.946
	l-0.097-2.293C131.229,90.423,130.615,92.218,130.339,92.946z"/>
<path fill="#FFFFFF" d="M128.343,95.562c-0.174-0.585,0.71-2.474-0.127-1.431c-0.055-0.375,0.127-0.737,0.284-1.143
	C128.223,94.386,129.6,93.445,128.343,95.562"/>
<path fill="#FFFFFF" d="M128.499,92.989l0.164-0.584L128.499,92.989z"/>
<path fill="#FFFFFF" stroke="#77BC1F" stroke-width="0" stroke-linecap="round" stroke-linejoin="round" d="M136.268,71.104
	c-0.258,0.135-0.339,0.058-0.347-0.094L136.268,71.104z"/>
<polygon fill="#FFFFFF" points="126.349,99.479 126.142,100.259 126.265,99.615 "/>
<path fill="#FFFFFF" d="M167.994,45.419c-3.49,0.583-6.36,1.278-10.366,3.69c0.545,0.947-1.523,1.074-1.253,2.234
	c3.689-2.793-14.633,9.495-10.947,8.226l0.563-1.066l-0.208,1.599c-1.95,0.998-4.722,2.428-5.398,3.883
	c-0.978-0.541,14.679-11.474,14.297-10.781c1.206-0.804-19.87,15.783-18.762,17.796l-0.727-0.202
	c-1.516,3.071-1.906,5.349-2.861,7.938l-1.046,0.084c1.316-1.548,1.076-2.343,1.938-4.281c-1.828,3.098-2.597,3.393-3.913,5.813
	c1.044,0.474,1.598-1.768,0.536,1.541c-0.85,0.669-0.901-1.963-2.073,0.93c-1.904,3.275-0.24,3.209-1.24,6.272l1.126-1.879
	c-0.364,1.126-0.888,3.268-1.853,4.129c0.536-1.226,1.156-4.653,0.122-5.01c-0.262,1.397-1.726,4.122-2.098,5.281l-0.466-0.947
	c-1.108,1.04-0.487,2.064-1.502,3.53c0.017,1.666,1.313-0.62,1.389,0.338c-0.33,0.219-1.507,3.105-1.282,4.266
	c1.768-0.313,0.439-3.675,2.454-5.104l-1.006,2.708c1.083,2.167,1.133-4.451,2.208-3.138c0.901,2.461-2.696,3.867-1.176,6.303
	c0.718-1.176,1.794-5.169,2.209-4.476c-0.935,1.235-0.107,2.565-0.398,4.528l-1.336,2.167c0.288,1.099,0.435,0.278,0.981-0.408
	c-1.646,3.303-1.481,9.318-2.704,14.252c0.102,2.954,0.648,0.371,1.223,1.709c-0.901,1.557,0.042,4.182,0.093,5.773
	c-0.076,0.489,1.076,1.226,1.38,0.743l-0.851-3.943c0.528,0.161,1.349-0.449,1.159-1.845c-2.026,0.966,1.313-5.541-0.77-5.94
	l0.96,0.135c-0.198-1.709-0.169-3.427-0.085-5.153l-0.156,0.136c0.424,0.102-0.215-4.495,1.101-7.151
	c-0.026,0.839-1.203,5.467,0.329,2.91c0.357,2.167-1.489,5.73-1.133,9.581l0.693-0.693c0.605,3.96-0.609,9.13,0.267,13.414
	l-1.083-1.161c-0.102,1.541-0.521,3.674,0.444,4.968c-0.322-1.863,0.317-0.981,0.745-0.737c1.01,2.329,1.248,6.053,2.876,9.091
	c0,0-0.246-0.095-0.313,0.093l1.836,3.07c0.58,1.574,0.354,2.319,0.279,3.546c0.364,0.524,1.185,1.838,1.333,1.075l-0.406-0.771
	c1.769,1.059,0.398,1.219,2.053,2.861c-1.588-1.075-0.729,1.082-1.533,1.371c1.782,2.055,1.359-0.601,1.87-0.518
	c1.482,2.837,1.016,3.733,3.034,6.316c0.53-0.206-1.229-2-0.917-2.574c0.458,0.804,1.21,1.582,1.464,1.592l-0.943-1.762
	c1.608,2.91,3.639,5.595,6.699,7.59l-0.046-0.389l1.685,1.431l-1.232,0.288c1.108,0.498,1.646,1.996,2.589,1.727l-0.309-0.312
	l1.35,0.498l-1.751,0.008c1.751,1.505,3.96,0.938,5.809,1.09c-0.295,1.492-2.99-0.142-4.645,0.526
	c0.664,0.796,2.158,1.752,2.513,1.363c0.148-0.39-0.279-0.567-0.902-0.897c0.944,0.008,6.064,1.624,7.173,0.008l-1.79-0.516
	c2.044-0.108,3.508,1.481,3.948,0.322l-1.316,1.895c2.124-1.008,4.489-1.667,5.513-3.4c-0.452-0.67-2.057,1.336-2.115,1.056
	l0.397-0.947c2.399-1.041,0.974,0.399,3.869-1.709l-0.47-0.458c1.697-0.137,1.861-4.384,2.652-2.294l-0.884,0.755l0.693,0.348
	c0.45-1.456,1.697-3.074,1.516-4.291c0.439,0.566,0.745-1.288,1.371-0.618l-0.246-1.533c1.299-0.617,0.496,2.888,1.267,3.471
	c0.486,0.127,0.642-0.729,0.677-1.142c0.388,2.464-2.184,2.649-3.258,4.528v1.371l-0.753-0.603
	c-0.428,0.755-0.428,1.744-0.355,2.269c-2.255,0.819-3.051,3.316-6.267,4.368c2.247-1.425-1.853-0.314-1.515-0.848
	c-1.1,0.533-4.993,2.157-6.293,0.871c-0.857-0.508,1.914-0.585-0.181-0.931c-1.43-0.069-2.496,0.312-1.621,0.897
	c-2.53,0.211-5.86-2.446-8.607-4.528h1.076c-1.359-1.784-3.555-2.506-4.871-2.911c-0.033-0.404-0.292-0.396,0.224-0.414
	c-1.227-2.769-3.566-1.728-6.368-5.73c-0.612,0.789,0.704,2.581,2.053,3.462l-1.045,0.363c2.678,3.343,6.41,6.552,9.566,7.998
	l-1.726-0.338c1.62,2.936,2.437,0.229,3.968,3.021c1.952,0.776-1.016-1.245,0.538-0.814c1.117,1.01-1.283,1.425,1.033,2.626
	c-9.038-3.936-16.321-12.526-21.373-21.073c-0.268-0.067-0.059,0.423,0.147,0.912c-4.814-2.07-8.086-29.966-8.975-30.743
	c0.374-0.517,0.881,1.083,0.737-1.024c-0.203-0.186-0.479-0.727-0.852-0.221c1.351-5.348,0.504-12.602,2.938-18.728
	c-0.474,0.042-0.364-1.397-0.677-1.499c1.586-1.879,1.379-5.873,2.809-7.606l-0.728,0.455c0.805-2.037,1.447-4.145,2.383-6.143
	c-0.076-0.238-0.529,0.542-0.762,1.016c0.347-1.42,1.076-1.455,1.532-1.396l0.279-3.132c5.409-6.659,9.699-17.263,18.639-22.578
	c0.678-1.565,1.406-2.811,3.539-4.257l-1.215,0.465c1.777-2.064,0.38,0.288,2.042-1.236c0.974-1.312-0.333-1.396-1.818,0.161
	c-1.265,0.465-0.771-0.229-0.102-0.922C153.393,48.152,160.716,45.521,167.994,45.419"/>
<path fill="#FFFFFF" d="M178.365,56.048c-0.527,0.838,0.077-3.427-1.098-1.447c-2.654,5.975-2.176,16.595-4.854,24.136
	c-1.023,1.938-1.188,2.464-1.892,4.232l0.504,0.042c-0.414,2.082-0.901,5.474-1.853,7.412c0.042,0.62,0.622,1.21,0.728,0.062
	c-0.148,3.282-2.563,5.034-2.463,6.854c0.825-1.355,0.28,1.616,1.083-0.033c-0.672,3.164-3.05,2.276-3.862,4.712
	c0.165,0.188,0.321,0.375,0.478-0.108c-1.777,2.539-0.41,8.225-2.056,8.513l0.71,1.117c-0.529,1.245-0.934,0.938-1.108,3.012
	c0.321,1.337,0.644-0.084,0.926,0.399c-0.604,0.592-0.363,4.229-0.828,5.873c-1.174,0.21,0.942-2.98,0-4.563
	c-0.221-0.041-0.273,0.205-0.281,0.542c-0.432-8.963,3.754-14.318,4.838-21.292c1.133-1.294,0.701-2.7,0.13-3.546
	c-0.635,1.186-2.239,4.537-0.774,4.994l-1.489,1.886c-0.123,0.823-1.63,0.457-1.968,0.754c0.538-1.473-0.52-3.581-1.562-1.634
	c0.825-4.08,2.853,2.065,3.364-1.574l-0.942-0.788c0.397,0.814,1.687-2.106,1.586-3.35l-0.33,0.421
	c3.135-9.265,4.4-22.29,5.153-32.96c2.81-2.582,0.554-7.219,2.064-10.85c-1.535-1.269,0.314,2.175-1.586,0.305
	c-1.066,0.085-1.264-0.525-1.231-0.762l-1.02,0.364c-0.931-1.176-0.537-2.59,0.813-3.901c0.659-0.195,1.197-1.024,3.82-0.246
	c4.185,2.328,3.538,4.664,4.126,5.975C177.943,52.638,178.149,54.154,178.365,56.048"/>
<path fill="#FFFFFF" d="M188.36,44.301c0,0,38.248,8.015,47.363,52.097c9.106,44.083-21.861,67.763-29.139,68.855
	c-7.294,1.09-16.764,1.456-22.955-11.661c-6.194-13.111,10.558-26.955,11.293-39.353c0.729-12.38,0.365-14.201-2.556-25.5
	c-2.912-11.296-4.007-18.211-5.462-31.692C185.45,43.574,184.2,43.693,188.36,44.301"/>
<path fill="#FFFFFF" d="M226.058,155.013c-0.465,1.566-2.598,4.188-3.292,3.426c0.659,0.729,0.659,0.713-0.474,2.86
	c-0.373-0.464-1.828,1.016-2.793,1.931c1.1-0.382,2.388-1.253,4.57-3.335c0.957-2.808,6.084-5.907,6.262-8.952
	C228.978,152.245,227.242,153.124,226.058,155.013"/>
<path fill="#FFFFFF" d="M214.895,160.142l-0.066,0.523l2.885-3.25C217.281,158.196,215.318,160.461,214.895,160.142"/>
<path fill="#FFFFFF" d="M202.522,166.258c0.339-0.727-1.862-1.015-1.794-1.692c0.051,1.424-3.393,0.146-5.099-0.295l-1.067,0.855
	c1.55,1.411,6.623,1.846,10.583,1.261L202.522,166.258z"/>
<path fill="#FFFFFF" d="M198.959,165.387l-1.34,0.585C198.715,165.895,201.126,165.957,198.959,165.387"/>
<path fill="#FFFFFF" d="M201.676,169.339c3.446-0.058-2.082-0.38,1.354-0.761C201.897,168.823,200.543,168.924,201.676,169.339"/>
<path fill="#FFFFFF" d="M188.699,162.848c1.908,1.438,4.108,2.405,6.351,2.946c-0.901-0.312-1.637-1.043-2.424-1.523
	C191.212,164.101,190.032,163.416,188.699,162.848"/>
<path fill="#FFFFFF" d="M189.939,160.851c0.622,0.492,1.439,1.626,0.249,1.195c-1.35-1.923-2.868-2.499-3.761-4.538l1.579,1.337
	c0.414-0.616-3.241-2.876-1.714-3.714c-2.366-1.846-0.131,2.562-2.67-0.245c1.895,2.97,3.152,5.256,5.259,7.521
	c-0.512-0.761-0.778-0.997-1.354-2.114c1.354,1.616,3.969,3.014,6.191,3.784C192.965,162.697,191.073,162.612,189.939,160.851"/>
<path fill="#FFFFFF" d="M184.5,152.549c-0.527-2.021-1.213-4.976-2.051-5.679c-1.19,2.412,0.414,2.768,1.065,3.605
	c-0.038,0.652,0.441,2.802-0.38,2.166C183.307,152.26,184.32,153.66,184.5,152.549"/>
<path fill="#FFFFFF" d="M183.938,144.611l-0.753-1.743l-0.098,1.025l-0.77-0.025c0.164,0.245,1.523,1.251,1.281,3.258
	C184.276,146.084,183.592,145.685,183.938,144.611"/>
<path fill="#FFFFFF" d="M178.7,143.063c0.943-1.592,0.986-2.548,1.291-4.554c-0.982,2.513-1.719,6.552-1.118,7.585l-0.173-0.247
	c0.173,0-0.038,2.819,1.508,4.511C178.653,147.564,180.874,142.564,178.7,143.063"/>
<path fill="#FFFFFF" d="M178.299,146.863l-0.47-2.269L178.299,146.863z"/>
<path fill="#FFFFFF" d="M185.66,138.264c-0.664,0.938-0.96,1.981-1.455,2.987l0.554-0.66L185.66,138.264z"/>
<path fill="#FFFFFF" d="M181.196,141.058c1.059-2.784-1.316,1.312-0.432-1.373c0.191-0.743-1.422,3.93-0.609,4.384
	C180.262,143.292,180.271,141.125,181.196,141.058"/>
<path fill="#FFFFFF" d="M186.685,136.326l0.482-2.868L186.685,136.326z"/>
<path fill="#FFFFFF" d="M190.363,130.411l-0.242-0.762c1.697-2.217,2.781-5.754,4.621-7.244c-0.842,0.161-0.931-1.625-2.058,0.524
	c0.208,0.507-0.139,1.312,0.33,1.371c-0.612,0.864-0.977,0.449-1.472,0.957c-0.262,1.844-1.959,4.061-2.141,5.551
	c0.215-0.66,0.415-0.752,0.719-1.159c-0.538,3.099-2.961,2.387-2.125,4.325C188.069,132.806,189.922,131.749,190.363,130.411"/>
<path fill="#FFFFFF" d="M186.774,128.736l-1.351,2.012c-0.322-1.022,1.384-2.613,0.952-3.3c-0.469-0.093-1.818,1.938-1.67,1
	c1.446,1.124-1.502,2.954,0.884,2.809c-1.304,2.87-1.447,0.322-2.87,3.436l0.458,1.288
	C184.357,132.315,185.432,132.172,186.774,128.736"/>
<path fill="#FFFFFF" d="M191.06,120.789l0.982-0.82l-1.024,0.254c1.679-4.325,5.069-7.237,4.739-10.587
	c-0.96-4.029,0.711-7.879-0.282-12.061c-1.108-1.861-0.057,1.997-0.53,2.278c-1.472-0.347,0.465-2.064-0.901-2.777
	c-1.041-0.034-0.313,4.275-0.956,5.994c0.254,1.446,0.512,1.436,1.129,1.876c-0.583,0.39-0.719,1.897-1.336,2.278
	c0.686,3.106-0.778,4.901-0.339,7.802c-0.919,0.795,0.219-2.099-0.06-1.192l-0.259,1.504l0.157-0.142
	c0.639,2.173-1.621,5.847-2.703,6.863c0.655-0.888,1.564-1.38,1.281-0.042l-1.24,0.609l-0.183,3.226
	C189.875,123.48,192.465,121.854,191.06,120.789"/>
<path fill="#FFFFFF" d="M188.293,122.956c-2.048,2.842,1.409,0.254-0.749,3.443l1.794-3.613L188.293,122.956z"/>
<path fill="#FFFFFF" d="M193.839,108.011l0.669-1.744C193.227,107.206,194.839,109.998,193.839,108.011"/>
<polygon fill="#FFFFFF" points="193.683,101.646 194.923,102.459 194.115,100.884 "/>
<path fill="#FFFFFF" d="M194.127,95.621c-0.892-1.161-0.994,0.499-0.579,1.947C193.341,96.221,193.68,95.408,194.127,95.621"/>
<path fill="#FFFFFF" d="M193.988,85.542c0.694,2.885-0.33-2.623,1.205-0.805C194.614,84.482,193.616,83.172,193.988,85.542"/>
<path fill="#FFFFFF" d="M194.683,75.657c0.423,0.991,0.3,1.446,0.042,1.641C194.602,76.545,194.551,75.935,194.683,75.657"/>
<path fill="#FFFFFF" d="M196.43,113.555l-0.131,1.074L196.43,113.555z"/>
<path fill="#FFFFFF" d="M196.489,112.858l-0.059,0.688L196.489,112.858z"/>
<polygon fill="#FFFFFF" points="196.768,89.73 196.768,89.739 196.726,90.001 "/>
<polygon fill="#FFFFFF" points="207.396,164.008 208.556,163.467 207.415,164.018 "/>
<path fill="#FFFFFF" d="M209.462,164.931c-2.234,1.812-3.013-0.693-6.754,0.162c1.499-0.272,3.369-0.502,4.715-1.075
	C209.877,164.372,205.941,165.328,209.462,164.931"/>
<path fill="#FFFFFF" d="M181.01,151.796l-0.076-0.143C180.829,151.399,180.896,151.534,181.01,151.796"/>
<polygon fill="#FFFFFF" points="223.239,68.979 222.968,69.149 221.953,67.178 "/>
<path fill="#FFFFFF" d="M222.952,69.555c0.634,1.059,1.008,2.285,1.507,3.393c-3.91-6.024-8.852-11.373-14.565-15.714l0.83,0.076
	C211.399,56.141,223.409,69.985,222.952,69.555"/>
<path fill="#FFFFFF" d="M224.001,70.097c2.269,1.074,1.474,3.266,3.673,4.993c-1.489-1.176-2.717-1.829-3.326-3.427L224.001,70.097z
	"/>
<path fill="#FFFFFF" stroke="#77BC1F" stroke-width="0" stroke-linecap="round" stroke-linejoin="round" d="M230.095,75.115
	c0.304,1.226,1.455,2.268,1.574,2.972C230.551,78.161,230.434,76.131,230.095,75.115z"/>
<polygon fill="#FFFFFF" points="235.071,76.35 235.35,76.875 234.901,76.418 "/>
<path fill="#FFFFFF" d="M234.901,76.41l-0.431,0.179C234.445,76.14,234.63,76.173,234.901,76.41"/>
<path fill="#FFFFFF" d="M235.35,76.875c0.364,0.422,0.788,0.923,1.101,1.143l-0.178-0.535c0.466,0.628,1.372,1.702,1.228,2.151
	c-0.441-1.439-0.854-1.287-1.43-1.075l0.83,2.26C235.333,80.971,236.272,78.849,235.35,76.875"/>
<path fill="#FFFFFF" stroke="#77BC1F" stroke-width="0" stroke-linecap="round" stroke-linejoin="round" d="M238.591,83.789
	l-1.684-2.005C237.458,80.836,238.287,82.918,238.591,83.789z"/>
<path fill="#FFFFFF" d="M238.845,87.538c-0.322-0.489-1.15-2.724-1.016-1.259l-0.575-1.201
	C237.973,86.506,238.522,84.755,238.845,87.538"/>
<path fill="#FFFFFF" d="M237.254,85.077l-0.288-0.635L237.254,85.077z"/>
<path fill="#FFFFFF" stroke="#77BC1F" stroke-width="0" stroke-linecap="round" stroke-linejoin="round" d="M221.97,65.273
	c0.085,0.296-0.017,0.365-0.169,0.33L221.97,65.273z"/>
<polygon fill="#FFFFFF" points="239.15,92.488 239.369,93.37 239.142,92.674 "/>
<path fill="#FFFFFF" d="M187.561,48.119c2.324,0.863,4.861,2.014,8.754,3.115c0.372-1.041,1.608,0.432,2.332-0.499
	c-3.651-2.396,14.37,7.725,11.586,5.847l-1.143-0.228l1.566-0.254c1.6,1.455,3.021,4.164,4.561,4.596
	c0.466,0-14.227-10.959-14.183-9.742c-0.043-3.199,20.895,13.337,20.767,14.649l-0.363,0.686c2.648,2.099,4.764,3.276,6.634,5.501
	l-0.372,0.981c-0.889-1.888-1.635-2.108-3.106-3.63c2.116,2.972,1.997,3.826,3.604,6.085c0.889-0.601-0.693-2.38,1.516,0.448
	c0.034,1.125-2.057-0.389-0.482,2.292c1.354,3.504,2.666,2.083,3.893,5.206l-0.406-2.287c0.491,1.136,1.523,3.234,1.372,4.554
	c-0.424-1.353-2.218-4.442-3.2-3.901c0.71,1.201,1.387,4.241,1.854,5.34l-0.974-0.434c-0.287,1.474,1.168,1.786,0.898,3.606
	c0.803,1.38,0.82-1.245,1.337-0.492c-0.161,0.399,0.194,3.455,0.964,4.358c1.371-1.133-1.371-3.383-0.372-5.746l0.457,2.919
	c2.039,1.362-1.21-4.535,0.193-3.978c2.328,1.652-0.33,4.91,2.277,6.374c0.05-1.439-1.032-5.763-0.339-5.383
	c-0.177,1.702,1.202,2.473,1.956,4.569l-0.077,2.728c0.727,0.997,0.593,0.118,0.678-0.814c-0.127,3.978,1.988,10.368,0.922,15.97
	c0.355,3.251,0.77,0.391,1.337,1.896c-1.075,1.736-0.414,4.723-0.517,6.568c-0.068,0.532,0.693,1.616,1.167,1.142l-0.303-4.723
	c0.498,0.254,1.387-0.397,1.353-2.099c-1.743,1.167,1-6.677-1.218-6.913h0.982c-0.263-2.016-0.752-3.953-1.312-5.866l-0.102,0.186
	c0.211-0.016-1.193-4.873-1.785-8.074c0.677,0.805,1.253,6.291,1.735,2.895c0.821,2.353,1.023,6.755,1.539,11.222l0.603-0.93
	c1.32,4.731,0.093,11.154-0.508,16.417l-0.661-1.675c-0.61,1.812-1.685,4.01-1.21,5.864c0.304-2.226,0.634-0.991,0.949-0.517
	c-0.161,3.114-1.693,7.423-2.954,11.46c0,0-0.102-0.263-0.287-0.146c-0.339,1.448-0.652,2.913-1.169,4.319
	c-1.032,1.836-1.828,2.267-2.895,3.13c-0.21,0.753-1.235,2.36-0.389,2.005l0.584-0.923c-0.279,2.413-1.032,1.202-1.938,3.92
	c0.39-2.294-1.345-0.043-1.929-0.721c-1.439,2.869,1.1,1.075,1.226,1.616c-2.741,2.962-3.452,3.039-6.151,5.909
	c0.254,0.508,2.081-1.912,2.725-1.829c-0.795,0.804-1.625,1.835-1.608,2.134l1.896-1.642c-3.148,2.851-5.78,5.728-9.114,9.061
	l0.448-0.034l-2.285,1.855l0.254-1.406c-1.134,1.161-2.97,1.474-3.249,2.6l0.542-0.28l-1.59,1.371l1.259-1.938
	c-1.92,0.747-4.848,5.374-10.315,5.712c-1.625-0.431,9.073-2.773,7.787-4.965c-1.303,0.531-3.522,1.317-4.571,2.064
	c0.44,0.38,1.617-0.06,2.522-0.533c-4.688,3.181-9.359,1.369-12.126,2.843l2.944,0.575c-3.461,0.271-5.564-1.819-6.888-1.201
	l2.962-1.209c-3.45,0.574-8.129-1.178-11.1-2.921c-0.782,0.947,4.325,2.656,4.062,2.563l-1.861-0.109
	c-4.258-3.546-1.447-1.159-5.547-5.942l-0.521,0.398c-0.867-2.108-4.963-5.627-2.496-4.851l0.452,1.585l0.581-0.552
	c-1.143-1.962-2.747-3.266-3.5-5.905c0.728,0.516-0.389-2.972,0.613-2.211l-1.325-2.545c0.795-1.229,2.489,4.594,3.376,4.452
	c0.445-0.281,0.089-1.338-0.126-1.854c1.367,2.58,0.483,4.382,1.862,6.903l1.299,0.78l-0.838,0.498
	c0.927,0.848,2.085,1.219,2.632,1.269c0.782,3.115,4.481,3.963,8.217,5.716c-3.597-0.737,1.887,1.655,1.333,1.547
	c2.167,0.804,6.855-1.016,8.462,0.025c1.135,0.38-2.292,0.83,0.39,0.871c1.65-0.312,2.7-0.964,1.582-1.296
	c4.545-0.776,8.083-3.461,11.282-5.838l-0.381,1.082c2.345-1.185,3.623-3.475,3.995-4.925c0.432-0.05,0.432-0.33,0.432,0.221
	c2.995-1.549,1.895-3.799,5.163-7.649c-0.863-0.263-2.319,1.43-3.03,2.928l-0.524-0.99c-2.759,3.31-6.128,6.771-8.676,9.308
	l0.839-1.58c-3.217,0.65-0.965,2.462-4.231,2.605c-1.599,1.431,1.574-0.34,0.44,0.88c-1.438,0.498-0.567-1.666-2.7-0.693
	c7.709-4.408,14.853-12.509,19.354-20.785c-0.084-0.245-0.388,0.152-0.702,0.541c1.905-2.479,12.06-27.427,7.726-28.917
	c0.425-0.473,0.779,1.084,0.83-0.932c-0.178-0.186-0.405-0.702-0.83-0.235c1.591-5.129-0.609-11.841-1.083-17.985
	c-0.406,0.221-0.982-1.031-1.304-0.973c0.492-2.301-1.42-5.491-1.667-7.472l-0.262,0.771c-0.762-1.905-1.354-3.876-2.235-5.73
	c-0.27-0.074,0.136,0.653,0.221,1.152c-0.744-1.125-0.389-1.616-0.017-1.93l-2.234-1.946c-1.998-8.133-10.375-14.472-16.756-20.709
	c-1.675-0.084-2.709-0.601-4.688-1.701l0.77,0.821c-2.343-0.617,0.144-0.448-1.684-1.202c-1.421-0.237-1.083,0.932,0.678,1.464
	c0.761,0.854,0,0.737-0.762,0.491C198.241,54.288,192.337,51.013,187.561,48.119"/>
<path fill="#FFFFFF" d="M193.303,49.151c-0.321,0.813-0.788-3.114-1.431-1.083c-0.795,6.72,1.508,16.885,1.371,24.314
	c-0.347,2.074-0.229,2.582-0.262,4.408l0.486-0.142c0.288,2.005,1.248,5.136,1.333,7.218c0.313,0.524,1.101,0.762,0.678-0.271
	c1.299,2.826-0.018,5.51,0.973,7.111c0.067-1.601,1.028,1.328,0.934-0.551c0.89,3.232-1.569,3.539-1.311,6.204
	c0.228,0.109,0.453,0.236,0.41-0.315c-0.287,2.987,1.74,9.083-0.114,9.42l0.745,1.175c-0.605,1.261-0.986,0.942-1.29,3.031
	c0.224,1.371,0.66-0.034,0.901,0.483c-0.812,0.532-0.415,4.238-1.933,5.796c-1.012,0,2.001-2.828,0.973-4.561
	c-0.207-0.059-0.287,0.177-0.33,0.508c1.058-8.311,2.789-16.106,0.042-22.757c0.347-1.727-0.597-2.674-1.508-3.166
	c-0.063,1.312,0.12,5.045,1.647,4.749l-0.436,2.42c0.271,0.812-1.245,1.143-1.409,1.548c-0.191-1.565-2.065-2.903-2.125-0.743
	c-1.151-3.919,3.517,0.498,2.242-2.929l-1.209-0.247c0.745,0.527,0.448-2.665-0.166-3.714l-0.104,0.526
	c-2.086-9.461-4.308-22.156-5.789-32.803c2.539-2.665-2.209-8.403,0.173-9.681c-0.05-0.406-1.472,0.414-0.659-1.006
	c1.188-0.254,1.196,0.583,1.128,0.752l1.029-0.076c-0.119,1.362-0.275,2.582-1.532,3.588c0.034,0.194-0.295,0.838,1.532,0.44
	c3.232-1.947,2.61-3.021,3.132-3.182C191.952,45.969,192.618,47.417,193.303,49.151"/>
<path fill="#FFFFFF" d="M101.19,147.919c-0.978,4.335-1.96,9.852-2.928,16.553c-7.542,1.879-14.065,3.149-19.604,3.817
	c-5.527,0.67-11.041,1-16.523,1c-9.813,0-18.614-1.176-26.425-3.539c-7.808-2.351-14.497-6.456-20.062-12.305
	c-5.572-5.848-9.575-12.55-12.008-20.09C1.21,125.816,0,117.836,0,109.431c0-11.695,2.233-22.552,6.707-32.573
	C11.188,66.84,17.92,58.967,26.916,53.239c8.992-5.737,20.409-8.606,34.228-8.606c7.151,0,13.98,1.05,20.505,3.132
	c6.516,2.089,11.941,5.255,16.256,9.511c4.325,4.257,7.659,9.512,10.016,15.774c2.357,6.272,3.538,13.101,3.538,20.506
	c0,2.835-0.232,5.594-0.711,8.269H20.733c-0.275,4.306-0.415,7.591-0.415,9.857c0,8.219,1.728,15.792,5.184,22.716
	c3.457,6.923,8.569,12.168,15.33,15.723c6.749,3.57,14.53,5.347,23.336,5.347C74.307,155.467,86.646,152.956,101.19,147.919
	 M21.783,91.98h70.187c-0.076-4.966-0.389-8.842-0.943-11.603c-0.545-2.767-1.57-5.625-3.06-8.579
	c-1.489-2.962-3.521-5.527-6.067-7.693c-2.548-2.167-5.615-3.834-9.187-4.977c-3.568-1.142-7.435-1.718-11.593-1.718
	c-4.481,0-8.735,0.634-12.784,1.896c-4.044,1.262-7.617,3.005-10.71,5.213c-3.102,2.208-5.737,4.791-7.895,7.744
	c-2.158,2.963-3.771,5.824-4.825,8.591C23.848,83.619,22.808,87.328,21.783,91.98"/>
<path fill="#FFFFFF" d="M251.353,166.776l1.414-19.465l3.546-76.697h-14.607c0.237-2.354,0.5-6.179,0.778-11.468
	c0.271-5.297,0.457-9.148,0.534-11.586h16.172l-0.085-4.706c0-8.394,0.339-14.809,1.049-19.243
	c0.711-4.444,2.031-8.074,3.944-10.892c1.928-2.827,4.637-5.28,8.115-7.364c3.495-2.081,7.321-3.485,11.484-4.239
	C287.844,0.372,292.125,0,296.528,0c8.937,0,18.397,1.26,28.359,3.774c0.228,8.801,0.652,16.342,1.261,22.62
	c-7.532-2.639-14.37-3.976-20.563-3.976c-2.423,0-4.657,0.295-6.694,0.888c-2.04,0.584-3.7,1.388-4.994,2.403
	c-1.294,1.016-2.378,2.354-3.234,3.986c-0.861,1.65-1.446,3.588-1.768,5.821c-0.304,2.236-0.464,4.799-0.464,7.693l0.108,4.35
	h29.859c-0.475,5.409-0.948,13.092-1.415,23.054H288.8c-1.507,31.304-2.649,63.36-3.444,96.162
	c-7.158-0.151-12.872-0.238-17.128-0.238C263.903,166.538,258.275,166.625,251.353,166.776"/>
<path fill="#FFFFFF" d="M310.015,166.776c1.103-13.354,2.255-33.301,3.462-59.865c1.229-26.549,1.83-45.887,1.83-59.317
	c6.66,0.153,12.075,0.237,16.223,0.237c4.781,0,9.97-0.084,15.564-0.237l-0.976,18.221c2.522-3.691,4.807-6.695,6.907-9.013
	c2.072-2.319,4.773-4.469,8.073-6.423c3.299-1.973,7.176-3.53,11.619-4.664c4.443-1.143,9.021-1.717,13.735-1.717
	c3.546,0,6.956,0.338,10.273,1.007c3.3,0.668,6.303,1.607,9.021,2.835c2.709,1.21,5.026,2.614,6.957,4.181
	c1.922,1.573,3.554,3.317,4.89,5.247c1.338,1.929,2.794,4.78,4.368,8.548c1.726-2.743,3.315-5.053,4.756-6.897
	c1.454-1.845,3.402-3.749,5.839-5.713c2.439-1.972,5.139-3.615,8.126-4.959c2.978-1.337,6.336-2.378,10.07-3.123
	c3.725-0.745,7.591-1.125,11.594-1.125c6.828,0,13.269,1.125,19.311,3.359c6.044,2.252,10.798,5.78,14.243,10.622
	c3.462,4.832,5.188,10.833,5.188,17.982c0,3.776-0.263,9.318-0.796,16.639c-0.516,7.302-1.16,19.237-1.902,35.79
	c-0.755,16.552-1.162,24.71-1.245,33.75c-5.756-0.154-2.675-12.764-7.083-12.764c-5.204,0-2.606-4.882-9.622-4.722
	c1.269-18.5-7.778-12.296-7.243-21.757l-6.247-14.97c0.389-6.839,0.575-12.618,0.575-17.342c0-5.619-0.88-9.885-2.64-12.779
	c-1.763-2.893-4.003-4.959-6.704-6.185c-2.707-1.236-5.745-1.854-9.122-1.854c-3.521,0-6.718,0.678-9.578,2.024
	c-2.861,1.354-5.536,3.529-8,6.532c-2.47,3.006-4.374,6.517-5.702,10.51c-1.33,4.003-2.327,9.597-2.945,16.801
	c-0.637,7.192-1.145,16.646-1.531,28.357l-0.83,32.786c-6.524-0.151-11.941-0.238-16.249-0.238c-4.333,0-10.104,0.087-17.315,0.238
	c0.544-6.062,1.32-18.449,2.346-37.169c1.006-18.727,1.523-31.354,1.523-37.886c0-3.455-0.279-6.383-0.822-8.786
	c-0.549-2.403-1.674-4.681-3.367-6.847c-1.685-2.165-3.681-3.756-5.95-4.78c-2.276-1.024-4.916-1.541-7.903-1.541
	c-5.5,0-10.333,1.811-14.506,5.451c-4.171,3.621-7.22,8.463-9.147,14.53c-1.921,6.069-3.317,17.838-4.199,35.341
	c-0.879,17.491-1.319,31.398-1.319,41.687c-7.193-0.151-12.627-0.238-16.308-0.238C323.116,166.538,317.363,166.625,310.015,166.776
	"/>
<path fill="#FFFFFF" d="M591.82,166.776c-6.518-0.151-11.588-0.229-15.191-0.229c-3.928,0-9.343,0.077-16.249,0.229l0.99-20.429
	c-3.461,4.477-6.423,7.946-8.895,10.375c-2.47,2.445-5.524,4.706-9.174,6.794c-3.655,2.085-7.599,3.632-11.839,4.663
	c-4.241,1.018-8.632,1.525-13.176,1.525c-7.531,0-14.599-1.381-21.192-4.124c-6.601-2.758-12.204-6.624-16.833-11.627
	c-4.627-4.992-8.039-10.943-10.24-17.831c-2.207-6.878-3.29-14.064-3.29-21.528c0-10.317,1.962-20.37,5.897-30.171
	c3.937-9.792,9.326-17.72,16.172-23.78c6.848-6.06,14.599-10.341,23.249-12.864c8.657-2.512,17.949-3.782,27.868-3.782
	c7.149,0,15.248,0.702,24.304,2.098c0.483-10.223,0.729-20.953,0.729-32.2V5.873c7.388,0.151,13.05,0.229,16.976,0.229
	c5.102,0,10.851-0.077,17.213-0.229c-1.759,19.964-3.418,47.128-4.975,81.504C592.606,121.771,591.82,148.234,591.82,166.776
	 M562.749,68.514c-5.874-1.674-11.542-2.513-16.96-2.513c-6.193,0-12.117,0.864-17.771,2.597c-5.645,1.737-10.653,4.689-15.012,8.86
	c-4.351,4.173-7.718,9.529-10.064,16.073c-2.359,6.542-3.535,12.844-3.535,18.906c0,6.077,1.083,11.627,3.232,16.662
	c2.158,5.045,5.511,9.021,10.045,11.944c4.536,2.91,9.665,4.364,15.386,4.364c4.316,0,8.227-0.761,11.755-2.3
	c3.529-1.541,6.735-3.895,9.64-7.087c2.895-3.188,5.347-7.303,7.336-12.337c1.988-5.036,3.429-11.729,4.292-20.075
	C561.683,97.482,562.241,85.786,562.749,68.514"/>
<path fill="#FFFFFF" d="M17.471,214.955c-0.147,0.694-0.295,1.558-0.452,2.614c-1.198,0.307-2.234,0.516-3.11,0.618
	c-0.876,0.109-1.752,0.16-2.628,0.16c-1.557,0-2.953-0.186-4.193-0.559c-1.25-0.372-2.307-1.021-3.191-1.962
	c-0.893-0.923-1.523-1.98-1.912-3.184c-0.381-1.201-0.571-2.462-0.571-3.789c0-1.863,0.356-3.582,1.053-5.173
	c0.72-1.592,1.785-2.833,3.215-3.75c1.423-0.902,3.233-1.354,5.426-1.354c1.138,0,2.221,0.162,3.249,0.49
	c1.032,0.332,1.9,0.83,2.586,1.498c0.681,0.68,1.21,1.507,1.582,2.499c0.386,0.99,0.567,2.072,0.567,3.24
	c0,0.448-0.038,0.879-0.114,1.312H4.722c-0.05,0.676-0.08,1.201-0.08,1.565c0,1.312,0.278,2.513,0.825,3.615
	c0.546,1.108,1.362,1.938,2.438,2.503c1.062,0.567,2.302,0.846,3.698,0.846C13.206,216.146,15.166,215.751,17.471,214.955
	 M4.871,206.068h11.132c-0.017-0.786-0.068-1.396-0.153-1.835c-0.089-0.431-0.245-0.882-0.486-1.354
	c-0.232-0.469-0.554-0.863-0.96-1.211c-0.402-0.346-0.885-0.611-1.461-0.78c-0.562-0.194-1.177-0.27-1.835-0.27
	c-0.711,0-1.384,0.093-2.028,0.295c-0.637,0.203-1.205,0.466-1.696,0.821c-0.495,0.349-0.909,0.753-1.248,1.228
	c-0.347,0.464-0.609,0.913-0.774,1.348C5.201,204.749,5.035,205.332,4.871,206.068"/>
<path fill="#FFFFFF" d="M40.042,217.924c-0.604-0.033-1.134-0.049-1.57-0.049c-0.49,0-1.011,0.016-1.54,0.049l0.084-3.604
	c-0.292,0.558-0.554,0.99-0.77,1.294c-0.216,0.312-0.495,0.608-0.817,0.905c-0.325,0.286-0.655,0.533-0.994,0.745
	c-0.347,0.186-0.754,0.371-1.207,0.523c-0.465,0.16-1.002,0.288-1.62,0.389c-0.614,0.119-1.274,0.17-1.977,0.17
	c-1.516,0-2.813-0.237-3.888-0.693c-1.084-0.472-1.901-1.116-2.455-1.972c-0.554-0.848-0.83-1.995-0.83-3.47
	c0-0.229,0.01-0.61,0.035-1.142c0.025-0.543,0.06-1.245,0.109-2.101l0.322-6.212l0.05-2.013c0.021-0.459,0.021-1.039,0.021-1.753
	l1.714,0.016c0.347,0,0.884-0.006,1.603-0.016c-0.173,2.174-0.339,4.57-0.487,7.16c-0.156,2.589-0.24,4.248-0.24,4.967
	c0,1.101,0.181,1.973,0.537,2.632c0.355,0.652,0.952,1.16,1.777,1.516c0.83,0.363,1.765,0.541,2.814,0.541
	c0.927,0,1.811-0.17,2.661-0.489c0.72-0.281,1.334-0.678,1.829-1.16c0.537-0.533,0.991-1.227,1.346-2.082
	c0.266-0.617,0.464-1.431,0.604-2.402c0.084-0.712,0.174-1.998,0.258-3.844c0.097-2.242,0.165-4.519,0.211-6.838l1.74,0.016
	c0.373,0,0.892-0.006,1.57-0.016c-0.173,2.243-0.38,5.653-0.626,10.217C40.173,211.729,40.076,214.633,40.042,217.924"/>
<path fill="#FFFFFF" d="M45.019,217.924c0.443-7.191,0.668-12.921,0.668-17.213l-0.017-1.719c0.63,0.01,1.16,0.016,1.57,0.016
	c0.474,0,1.002-0.006,1.591-0.016l-0.153,3.106c0.457-0.771,0.863-1.354,1.227-1.743c0.347-0.391,0.759-0.719,1.207-0.981
	c0.444-0.245,0.952-0.449,1.527-0.585c0.564-0.143,1.152-0.22,1.765-0.22c0.52,0,1.041,0.067,1.552,0.194
	c0.009,0.829,0.052,1.744,0.124,2.768c-0.774-0.209-1.469-0.322-2.082-0.322c-0.728,0-1.396,0.129-1.977,0.355
	c-0.588,0.255-1.117,0.617-1.586,1.108c-0.465,0.5-0.847,1.075-1.142,1.763c-0.25,0.558-0.439,1.269-0.572,2.132
	c-0.131,0.861-0.233,2.454-0.312,4.756c-0.043,1.686-0.068,3.461-0.068,5.351v1.25c-0.678-0.033-1.215-0.049-1.63-0.049
	C46.346,217.875,45.775,217.891,45.019,217.924"/>
<path fill="#FFFFFF" d="M67.858,198.57c1.308,0,2.556,0.186,3.737,0.56c1.186,0.371,2.209,0.964,3.084,1.778
	c0.854,0.81,1.515,1.835,1.968,3.061c0.448,1.244,0.672,2.538,0.672,3.909c0,1.484-0.241,2.905-0.719,4.266
	c-0.483,1.354-1.16,2.506-2.019,3.454c-0.867,0.948-1.933,1.642-3.183,2.082c-1.252,0.439-2.597,0.668-4.028,0.668
	c-1.333,0-2.598-0.203-3.778-0.608c-1.186-0.392-2.209-1.008-3.077-1.861c-0.867-0.84-1.523-1.879-1.976-3.107
	c-0.448-1.235-0.678-2.514-0.678-3.867c0-2.03,0.42-3.86,1.24-5.482c0.825-1.626,2.031-2.835,3.623-3.642
	C64.33,198.969,66.04,198.57,67.858,198.57 M67.771,200.941c-1.274,0-2.442,0.312-3.508,0.946c-1.058,0.637-1.854,1.601-2.366,2.871
	c-0.512,1.276-0.762,2.671-0.762,4.179c0,1.327,0.208,2.513,0.631,3.564c0.423,1.057,1.125,1.902,2.099,2.553
	c0.968,0.653,2.141,0.976,3.515,0.976c0.928,0,1.821-0.162,2.654-0.484c0.841-0.312,1.57-0.837,2.192-1.572
	c0.622-0.737,1.083-1.644,1.388-2.709c0.292-1.066,0.439-2.181,0.439-3.351c0-1.101-0.147-2.124-0.439-3.08
	c-0.306-0.965-0.767-1.735-1.379-2.319c-0.614-0.567-1.316-0.99-2.099-1.22C69.357,201.057,68.569,200.941,67.771,200.941"/>
<path fill="#FFFFFF" d="M80.569,226.363c0.251-3.206,0.488-7.585,0.711-13.111c0.216-5.533,0.339-10.044,0.365-13.555
	c2.036-0.441,3.672-0.737,4.904-0.89c1.223-0.16,2.454-0.237,3.681-0.237c1.943,0,3.623,0.312,5.052,0.931
	c1.43,0.61,2.54,1.693,3.348,3.258c0.787,1.542,1.185,3.294,1.185,5.248c0,1.361-0.181,2.665-0.554,3.934
	c-0.373,1.263-0.943,2.404-1.705,3.396c-0.77,0.996-1.697,1.742-2.78,2.25c-1.083,0.508-2.29,0.761-3.625,0.761
	c-0.796,0-1.558-0.101-2.294-0.296c-0.737-0.196-1.371-0.438-1.917-0.753c-0.538-0.312-0.995-0.668-1.358-1.049
	c-0.373-0.39-0.817-0.973-1.336-1.743l-0.233,7.396c-0.05,1.201-0.08,2.074-0.08,2.616v1.845c-0.63-0.018-1.176-0.033-1.654-0.033
	C81.844,226.33,81.272,226.345,80.569,226.363 M84.853,201.903l-0.131,1.425l-0.098,1.938c-0.042,1.021-0.084,1.861-0.11,2.495
	c-0.025,0.645-0.038,1.093-0.038,1.361c0,0.923,0.096,1.796,0.287,2.616c0.2,0.819,0.58,1.572,1.164,2.26
	c0.581,0.668,1.253,1.184,2.045,1.531c0.778,0.348,1.595,0.523,2.424,0.523c1.164,0,2.229-0.33,3.182-0.972
	c0.952-0.652,1.687-1.616,2.226-2.895c0.538-1.286,0.799-2.693,0.799-4.206c0-1.531-0.279-2.844-0.842-3.954
	c-0.554-1.114-1.307-1.91-2.251-2.402c-0.947-0.49-2.013-0.743-3.207-0.743C88.593,200.881,86.781,201.219,84.853,201.903"/>
<path fill="#FFFFFF" d="M118.983,214.955c-0.148,0.694-0.297,1.558-0.454,2.614c-1.196,0.307-2.233,0.516-3.11,0.618
	c-0.876,0.109-1.751,0.16-2.628,0.16c-1.557,0-2.954-0.186-4.201-0.559c-1.24-0.372-2.298-1.021-3.182-1.962
	c-0.893-0.923-1.523-1.98-1.914-3.184c-0.38-1.201-0.571-2.462-0.571-3.789c0-1.863,0.355-3.582,1.059-5.173
	c0.705-1.592,1.781-2.833,3.203-3.75c1.429-0.902,3.241-1.354,5.432-1.354c1.139,0,2.222,0.162,3.251,0.49
	c1.032,0.332,1.891,0.83,2.584,1.498c0.682,0.68,1.211,1.507,1.583,2.499c0.384,0.99,0.567,2.072,0.567,3.24
	c0,0.448-0.046,0.879-0.115,1.312h-14.256c-0.052,0.676-0.076,1.201-0.076,1.565c0,1.312,0.275,2.513,0.821,3.615
	c0.554,1.108,1.363,1.938,2.428,2.503c1.076,0.567,2.303,0.846,3.708,0.846C114.717,216.146,116.676,215.751,118.983,214.955
	 M106.381,206.068h11.132c-0.017-0.786-0.068-1.396-0.151-1.835c-0.09-0.431-0.246-0.882-0.479-1.354
	c-0.241-0.469-0.563-0.863-0.968-1.211c-0.403-0.346-0.885-0.611-1.458-0.78c-0.566-0.194-1.179-0.27-1.84-0.27
	c-0.71,0-1.383,0.093-2.026,0.295c-0.639,0.203-1.215,0.466-1.696,0.821c-0.496,0.349-0.91,0.753-1.257,1.228
	c-0.339,0.464-0.588,0.913-0.761,1.348C106.711,204.749,106.546,205.332,106.381,206.068"/>
<path fill="#FFFFFF" d="M124.965,202.016c0.105-0.552,0.224-1.355,0.347-2.423c1.499-0.389,2.802-0.659,3.893-0.804
	c1.109-0.143,2.185-0.22,3.233-0.22c1.117,0,2.167,0.102,3.144,0.312c0.978,0.203,1.794,0.535,2.441,1
	c0.652,0.458,1.076,0.999,1.296,1.582c0.206,0.601,0.308,1.245,0.308,1.923c0,0.863-0.06,2.31-0.182,4.323
	c-0.126,2.022-0.225,3.901-0.284,5.618c-0.072,1.72-0.097,3.253-0.097,4.596c-0.678-0.025-1.232-0.043-1.655-0.043
	c-0.406,0-0.969,0.018-1.714,0.043l0.389-5.104l0.267-6.025c-0.432,0.332-0.763,0.575-0.978,0.703
	c-0.215,0.135-0.461,0.271-0.736,0.39c-0.27,0.11-0.572,0.229-0.901,0.329c-0.33,0.102-0.974,0.297-1.926,0.55
	c-0.943,0.272-1.62,0.466-2.019,0.601c-0.858,0.28-1.535,0.559-2.026,0.824c-0.503,0.278-0.918,0.572-1.257,0.902
	c-0.33,0.322-0.563,0.654-0.702,0.973c-0.165,0.398-0.245,0.813-0.245,1.254c0,0.678,0.203,1.253,0.601,1.753
	c0.397,0.498,0.901,0.846,1.498,1.039c0.605,0.186,1.333,0.297,2.175,0.297c0.52,0,1.074-0.042,1.646-0.117
	c0.571-0.069,1.344-0.255,2.297-0.561c-0.174,0.474-0.372,1.211-0.596,2.217c-0.911,0.17-1.646,0.288-2.231,0.331
	c-0.562,0.044-1.108,0.067-1.621,0.067c-1.704,0-3.037-0.203-4.003-0.608c-0.951-0.392-1.67-1-2.148-1.819
	c-0.465-0.812-0.711-1.701-0.711-2.657c0-0.567,0.089-1.075,0.263-1.55c0.164-0.481,0.389-0.904,0.676-1.296
	c0.284-0.379,0.691-0.769,1.218-1.157c0.529-0.382,1.083-0.693,1.668-0.948c0.579-0.253,1.251-0.5,2.026-0.745
	c0.762-0.245,2.001-0.567,3.708-0.982c0.544-0.116,1.014-0.245,1.404-0.379c0.38-0.137,0.727-0.255,1.024-0.382
	c0.292-0.126,0.562-0.278,0.778-0.44c0.224-0.17,0.432-0.371,0.613-0.618c0.195-0.245,0.331-0.49,0.419-0.737
	c0.085-0.245,0.127-0.498,0.127-0.753c0-0.608-0.2-1.124-0.597-1.564c-0.398-0.431-0.919-0.729-1.557-0.915
	c-0.644-0.168-1.396-0.253-2.273-0.253c-0.808,0-1.637,0.06-2.487,0.196c-0.859,0.134-1.595,0.286-2.209,0.456
	C126.659,201.379,125.883,201.65,124.965,202.016"/>
<path fill="#FFFFFF" d="M143.995,217.924c0.588-7.81,0.888-14.122,0.918-18.932l1.679,0.016c0.415,0,0.952-0.006,1.63-0.016
	l-0.241,3.74c0.308-0.523,0.562-0.923,0.744-1.201c0.191-0.278,0.439-0.567,0.753-0.887c0.314-0.305,0.678-0.603,1.101-0.866
	c0.424-0.263,0.918-0.487,1.491-0.677c0.579-0.177,1.163-0.312,1.75-0.396c0.587-0.093,1.188-0.137,1.769-0.137
	c1.074,0,2.103,0.137,3.102,0.399c0.994,0.253,1.819,0.684,2.463,1.278c0.639,0.583,1.074,1.251,1.289,1.987
	c0.216,0.728,0.331,1.523,0.331,2.369c0,0.16-0.012,0.473-0.03,0.931c-0.009,0.464-0.034,1.068-0.077,1.812l-0.363,7.836
	c-0.025,0.745-0.042,1.658-0.052,2.742c-0.562-0.033-1.09-0.049-1.594-0.049c-0.609,0-1.188,0.016-1.726,0.049
	c0.13-1.515,0.228-2.963,0.288-4.358l0.24-4.351c0.08-1.497,0.123-2.622,0.123-3.385c0-1.092-0.191-1.962-0.562-2.623
	c-0.374-0.65-0.974-1.152-1.794-1.506c-0.826-0.363-1.753-0.541-2.776-0.541c-1.447,0-2.684,0.348-3.724,1.021
	c-0.943,0.644-1.679,1.543-2.209,2.708c-0.355,0.848-0.617,2.075-0.766,3.717c-0.19,1.946-0.317,5.06-0.398,9.317
	c-0.693-0.033-1.231-0.049-1.611-0.049C145.352,217.875,144.773,217.891,143.995,217.924"/>
<path fill="#FFFFFF" d="M190.641,215.107c-0.024,0.193-0.098,0.575-0.199,1.108c-0.106,0.531-0.203,1.065-0.279,1.583
	c-0.901,0.219-1.786,0.355-2.616,0.433c-0.841,0.075-1.578,0.116-2.221,0.116c-1.342,0-2.574-0.186-3.716-0.549
	c-1.138-0.357-2.133-0.948-2.982-1.786c-0.838-0.822-1.465-1.854-1.862-3.08c-0.398-1.22-0.597-2.521-0.597-3.877
	c0-1.835,0.318-3.57,0.969-5.204c0.652-1.649,1.67-2.943,3.068-3.876c1.396-0.938,3.291-1.405,5.699-1.405
	c1.777,0,3.495,0.245,5.175,0.722c0.081,1.049,0.139,1.91,0.207,2.596c-1.184-0.379-2.157-0.618-2.902-0.753
	c-0.745-0.126-1.439-0.193-2.069-0.193c-1.101,0-2.082,0.193-2.949,0.601c-0.864,0.388-1.608,0.962-2.218,1.693
	c-0.605,0.743-1.049,1.616-1.316,2.612c-0.271,1.025-0.405,2.051-0.405,3.1c0,1.411,0.225,2.64,0.655,3.704
	c0.443,1.06,1.197,1.871,2.298,2.456c1.083,0.585,2.307,0.863,3.656,0.863C187.366,215.97,188.898,215.692,190.641,215.107"/>
<path fill="#FFFFFF" d="M204.216,198.57c1.312,0,2.556,0.186,3.74,0.56c1.186,0.371,2.218,0.964,3.081,1.778
	c0.863,0.81,1.523,1.835,1.972,3.061c0.449,1.244,0.678,2.538,0.678,3.909c0,1.484-0.246,2.905-0.728,4.266
	c-0.482,1.354-1.143,2.506-2.015,3.454c-0.871,0.948-1.928,1.642-3.173,2.082c-1.262,0.439-2.607,0.668-4.037,0.668
	c-1.329,0-2.59-0.203-3.774-0.608c-1.193-0.392-2.213-1.008-3.081-1.861c-0.872-0.84-1.523-1.879-1.971-3.107
	c-0.453-1.235-0.668-2.514-0.668-3.867c0-2.03,0.406-3.86,1.23-5.482c0.821-1.626,2.026-2.835,3.618-3.642
	C200.695,198.969,202.405,198.57,204.216,198.57 M204.131,200.941c-1.27,0-2.438,0.312-3.504,0.946
	c-1.066,0.637-1.861,1.601-2.37,2.871c-0.503,1.276-0.762,2.671-0.762,4.179c0,1.327,0.208,2.513,0.627,3.564
	c0.432,1.057,1.125,1.902,2.098,2.553c0.982,0.653,2.15,0.976,3.521,0.976c0.94,0,1.828-0.162,2.658-0.484
	c0.837-0.312,1.566-0.837,2.183-1.572c0.626-0.737,1.083-1.644,1.388-2.709c0.304-1.066,0.44-2.181,0.44-3.351
	c0-1.101-0.136-2.124-0.44-3.08c-0.305-0.965-0.762-1.735-1.371-2.319c-0.619-0.567-1.321-0.99-2.099-1.22
	C205.722,201.057,204.927,200.941,204.131,200.941"/>
<path fill="#FFFFFF" d="M217.281,217.924l0.204-2.717c0.034-0.566,0.085-1.472,0.153-2.698l0.44-11.383
	c0.017-0.94,0.017-1.649,0.017-2.134c0.593,0.01,1.134,0.016,1.608,0.016c0.532,0,1.049-0.006,1.557-0.016l-0.169,3.487
	c0.44-0.703,0.812-1.253,1.151-1.665c0.356-0.415,0.803-0.797,1.354-1.145c0.566-0.348,1.201-0.618,1.913-0.804
	c0.727-0.204,1.455-0.297,2.233-0.297c0.542,0,1.067,0.06,1.583,0.186c0.533,0.127,1.015,0.297,1.447,0.526
	c0.44,0.229,0.829,0.474,1.151,0.761c0.306,0.298,0.56,0.603,0.762,0.948c0.186,0.332,0.389,0.812,0.584,1.446
	c0.762-1.429,1.71-2.437,2.843-3.014c1.135-0.564,2.411-0.854,3.817-0.854c0.898,0,1.76,0.145,2.607,0.423
	c0.847,0.299,1.515,0.704,2.014,1.245c0.491,0.533,0.83,1.091,0.991,1.665c0.161,0.585,0.254,1.162,0.254,1.753
	c0,0.595-0.042,1.489-0.127,2.683c-0.093,1.202-0.195,3.023-0.304,5.47c-0.102,2.436-0.178,4.484-0.186,6.116
	c-0.661-0.033-1.176-0.049-1.55-0.049c-0.397,0-0.989,0.016-1.769,0.049c0.136-1.685,0.254-3.511,0.356-5.5l0.237-4.63
	c0.067-1.118,0.102-2.082,0.102-2.894c0-0.728-0.085-1.287-0.229-1.693c-0.144-0.405-0.388-0.776-0.719-1.099
	c-0.321-0.322-0.736-0.577-1.219-0.747c-0.49-0.168-1.04-0.245-1.667-0.245c-0.499,0-0.957,0.05-1.379,0.162
	c-0.39,0.11-0.788,0.278-1.16,0.508c-0.406,0.245-0.778,0.531-1.108,0.879c-0.304,0.33-0.593,0.722-0.812,1.137
	c-0.237,0.448-0.441,0.956-0.576,1.562c-0.186,0.747-0.322,1.659-0.398,2.742c-0.085,1.168-0.161,2.691-0.211,4.58l-0.152,5.237
	c-0.72-0.033-1.27-0.049-1.625-0.049c-0.339,0-0.897,0.016-1.692,0.049c0.118-1.549,0.22-3.129,0.305-4.766l0.219-4.519
	c0.052-1.396,0.084-2.58,0.084-3.569c0-0.635-0.049-1.17-0.177-1.616c-0.119-0.443-0.363-0.848-0.702-1.212
	c-0.339-0.373-0.762-0.651-1.245-0.837c-0.483-0.204-1.023-0.289-1.6-0.289c-0.626,0-1.21,0.103-1.776,0.322
	c-0.559,0.211-1.067,0.533-1.55,0.966c-0.473,0.421-0.871,0.938-1.193,1.558c-0.321,0.616-0.575,1.42-0.762,2.428
	c-0.168,1-0.312,2.742-0.405,5.237c-0.102,2.488-0.161,4.588-0.161,6.297c-0.805-0.033-1.347-0.049-1.65-0.049
	C218.67,217.875,218.094,217.891,217.281,217.924"/>
<path fill="#FFFFFF" d="M250.101,217.924l0.195-2.717c0.042-0.566,0.093-1.472,0.159-2.698l0.441-11.383
	c0.017-0.94,0.025-1.649,0.025-2.134c0.584,0.01,1.117,0.016,1.6,0.016c0.524,0,1.041-0.006,1.557-0.016l-0.169,3.487
	c0.439-0.703,0.813-1.253,1.152-1.665c0.347-0.415,0.795-0.797,1.353-1.145c0.559-0.348,1.203-0.618,1.914-0.804
	c0.727-0.204,1.455-0.297,2.234-0.297c0.533,0,1.066,0.06,1.583,0.186c0.533,0.127,1.006,0.297,1.447,0.526
	c0.439,0.229,0.82,0.474,1.142,0.761c0.313,0.298,0.567,0.603,0.762,0.948c0.194,0.332,0.398,0.812,0.593,1.446
	c0.762-1.429,1.701-2.437,2.834-3.014c1.142-0.564,2.42-0.854,3.825-0.854c0.897,0,1.761,0.145,2.606,0.423
	c0.849,0.299,1.507,0.704,2.006,1.245c0.499,0.533,0.839,1.091,1,1.665c0.177,0.585,0.245,1.162,0.245,1.753
	c0,0.595-0.034,1.489-0.127,2.683c-0.084,1.202-0.194,3.023-0.296,5.47c-0.109,2.436-0.177,4.484-0.187,6.116
	c-0.659-0.033-1.185-0.049-1.557-0.049c-0.39,0-0.981,0.016-1.759,0.049c0.133-1.685,0.254-3.511,0.354-5.5l0.238-4.63
	c0.067-1.118,0.102-2.082,0.102-2.894c0-0.728-0.086-1.287-0.229-1.693c-0.145-0.405-0.39-0.776-0.718-1.099
	c-0.331-0.322-0.737-0.577-1.22-0.747c-0.492-0.168-1.049-0.245-1.667-0.245c-0.5,0-0.966,0.05-1.379,0.162
	c-0.399,0.11-0.788,0.278-1.161,0.508c-0.415,0.245-0.786,0.531-1.108,0.879c-0.322,0.33-0.592,0.722-0.813,1.137
	c-0.236,0.448-0.439,0.956-0.583,1.562c-0.178,0.747-0.313,1.659-0.389,2.742c-0.094,1.168-0.161,2.691-0.211,4.58l-0.152,5.237
	c-0.72-0.033-1.271-0.049-1.625-0.049c-0.338,0-0.898,0.016-1.693,0.049c0.126-1.549,0.219-3.129,0.304-4.766l0.212-4.519
	c0.059-1.396,0.093-2.58,0.093-3.569c0-0.635-0.059-1.17-0.178-1.616c-0.127-0.443-0.364-0.848-0.703-1.212
	c-0.347-0.373-0.761-0.651-1.252-0.837c-0.474-0.204-1.016-0.289-1.599-0.289c-0.618,0-1.21,0.103-1.77,0.322
	c-0.558,0.211-1.074,0.533-1.548,0.966c-0.465,0.421-0.873,0.938-1.193,1.558c-0.321,0.616-0.575,1.42-0.762,2.428
	c-0.17,1-0.321,2.742-0.406,5.237c-0.11,2.488-0.161,4.588-0.161,6.297c-0.804-0.033-1.354-0.049-1.651-0.049
	C251.472,217.875,250.914,217.891,250.101,217.924"/>
<path fill="#FFFFFF" d="M283.055,217.899l0.338-4.704l0.355-8.041l0.161-6.194l1.7,0.025l1.677-0.025
	c-0.127,1.954-0.272,3.987-0.375,6.111c-0.118,2.123-0.22,4.451-0.286,6.964c-0.068,2.512-0.102,4.47-0.102,5.864
	c-0.78-0.023-1.337-0.044-1.677-0.044C284.544,217.855,283.943,217.875,283.055,217.899 M283.901,194.907
	c0.042-1.169,0.058-2.049,0.058-2.649c0.678,0.024,1.297,0.044,1.812,0.044c0.662,0,1.263-0.02,1.795-0.044
	c-0.024,0.39-0.059,1.269-0.111,2.649c-0.668-0.018-1.26-0.018-1.743-0.018C285.222,194.889,284.628,194.889,283.901,194.907"/>
<path fill="#FFFFFF" d="M290.695,217.577l-0.126-1.371c0-0.152-0.035-0.624-0.143-1.421c1.922,0.83,3.681,1.245,5.297,1.245
	c0.839,0,1.548-0.11,2.133-0.338c0.586-0.224,1.024-0.551,1.312-0.992c0.297-0.448,0.44-0.896,0.44-1.371
	c0-0.263-0.035-0.525-0.118-0.778c-0.077-0.261-0.195-0.523-0.355-0.753c-0.17-0.244-0.407-0.518-0.712-0.812
	c-0.322-0.286-0.981-0.838-1.979-1.644c-1.009-0.811-1.762-1.444-2.287-1.903c-0.508-0.456-0.947-0.922-1.31-1.396
	c-0.372-0.482-0.644-0.966-0.821-1.446c-0.17-0.492-0.254-0.982-0.254-1.481c0-0.797,0.254-1.573,0.762-2.32
	c0.49-0.752,1.217-1.302,2.173-1.665c0.957-0.365,2.065-0.56,3.344-0.56c1.439,0,3.013,0.16,4.722,0.498
	c0.051,0.975,0.12,1.879,0.203,2.693c-1.395-0.585-2.776-0.88-4.129-0.88c-0.727,0-1.42,0.1-2.04,0.295
	c-0.634,0.195-1.089,0.482-1.378,0.873c-0.306,0.382-0.441,0.811-0.441,1.269c0,0.296,0.042,0.583,0.135,0.863
	c0.103,0.271,0.288,0.567,0.542,0.879c0.254,0.322,0.56,0.637,0.932,0.959c0.356,0.296,1.065,0.887,2.14,1.75
	c1.077,0.855,1.82,1.5,2.225,1.905c0.392,0.414,0.731,0.835,1.016,1.268c0.289,0.441,0.492,0.872,0.629,1.305
	c0.134,0.425,0.201,0.863,0.201,1.319c0,0.863-0.261,1.678-0.776,2.421c-0.518,0.744-1.278,1.337-2.304,1.742
	c-1.021,0.405-2.158,0.618-3.436,0.618c-0.532,0-1.167-0.033-1.886-0.101c-0.721-0.077-1.329-0.152-1.83-0.255
	C292.076,217.909,291.441,217.762,290.695,217.577"/>
<path fill="#FFFFFF" d="M305.886,217.577l-0.116-1.371c0-0.152-0.052-0.624-0.162-1.421c1.922,0.83,3.681,1.245,5.291,1.245
	c0.846,0,1.562-0.11,2.147-0.338c0.593-0.224,1.033-0.551,1.322-0.992c0.288-0.448,0.422-0.896,0.422-1.371
	c0-0.263-0.035-0.525-0.11-0.778c-0.085-0.261-0.211-0.523-0.373-0.753c-0.158-0.244-0.397-0.518-0.71-0.812
	c-0.312-0.286-0.974-0.838-1.972-1.644c-1.007-0.811-1.76-1.444-2.268-1.903c-0.523-0.456-0.964-0.922-1.338-1.396
	c-0.355-0.482-0.626-0.966-0.796-1.446c-0.176-0.492-0.269-0.982-0.269-1.481c0-0.797,0.253-1.573,0.761-2.32
	c0.508-0.752,1.234-1.302,2.173-1.665c0.956-0.365,2.074-0.56,3.353-0.56c1.431,0,3.004,0.16,4.715,0.498
	c0.049,0.975,0.134,1.879,0.211,2.693c-1.396-0.585-2.775-0.88-4.139-0.88c-0.728,0-1.405,0.1-2.047,0.295
	c-0.619,0.195-1.083,0.482-1.372,0.873c-0.296,0.382-0.438,0.811-0.438,1.269c0,0.296,0.04,0.583,0.143,0.863
	c0.11,0.271,0.278,0.567,0.531,0.879c0.255,0.322,0.569,0.637,0.923,0.959c0.365,0.296,1.085,0.887,2.157,1.75
	c1.077,0.855,1.812,1.5,2.211,1.905c0.397,0.414,0.737,0.835,1.031,1.268c0.281,0.441,0.482,0.872,0.619,1.305
	c0.136,0.425,0.203,0.863,0.203,1.319c0,0.863-0.253,1.678-0.778,2.421c-0.523,0.744-1.286,1.337-2.302,1.742
	c-1.023,0.405-2.159,0.618-3.436,0.618c-0.536,0-1.16-0.033-1.879-0.101c-0.722-0.077-1.338-0.152-1.836-0.255
	C307.257,217.909,306.633,217.762,305.886,217.577"/>
<path fill="#FFFFFF" d="M322.033,217.899l0.33-4.704l0.364-8.041l0.153-6.194l1.72,0.025l1.673-0.025
	c-0.145,1.954-0.271,3.987-0.379,6.111c-0.119,2.123-0.214,4.451-0.279,6.964c-0.068,2.512-0.112,4.47-0.112,5.864
	c-0.776-0.023-1.346-0.044-1.674-0.044C323.516,217.855,322.931,217.875,322.033,217.899 M322.881,194.907
	c0.034-1.169,0.05-2.049,0.05-2.649c0.693,0.024,1.294,0.044,1.812,0.044c0.678,0,1.269-0.02,1.812-0.044
	c-0.035,0.39-0.068,1.269-0.118,2.649c-0.678-0.018-1.255-0.018-1.742-0.018C324.209,194.889,323.608,194.889,322.881,194.907"/>
<path fill="#FFFFFF" d="M339.968,198.57c1.312,0,2.547,0.186,3.732,0.56c1.183,0.371,2.217,0.964,3.08,1.778
	c0.861,0.81,1.523,1.835,1.979,3.061c0.438,1.244,0.668,2.538,0.668,3.909c0,1.484-0.245,2.905-0.728,4.266
	c-0.474,1.354-1.151,2.506-2.005,3.454c-0.882,0.948-1.931,1.642-3.191,2.082c-1.242,0.439-2.598,0.668-4.021,0.668
	c-1.338,0-2.588-0.203-3.781-0.608c-1.186-0.392-2.209-1.008-3.072-1.861c-0.88-0.84-1.523-1.879-1.98-3.107
	c-0.45-1.235-0.659-2.514-0.659-3.867c0-2.03,0.389-3.86,1.225-5.482c0.822-1.626,2.025-2.835,3.624-3.642
	C336.429,198.969,338.146,198.57,339.968,198.57 M339.883,200.941c-1.278,0-2.446,0.312-3.513,0.946
	c-1.06,0.637-1.854,1.601-2.369,2.871c-0.508,1.276-0.761,2.671-0.761,4.179c0,1.327,0.209,2.513,0.634,3.564
	c0.431,1.057,1.118,1.902,2.099,2.553c0.972,0.653,2.14,0.976,3.511,0.976c0.948,0,1.83-0.162,2.659-0.484
	c0.828-0.312,1.573-0.837,2.191-1.572c0.626-0.737,1.075-1.644,1.379-2.709c0.307-1.066,0.448-2.181,0.448-3.351
	c0-1.101-0.142-2.124-0.448-3.08c-0.304-0.965-0.753-1.735-1.379-2.319c-0.618-0.567-1.312-0.99-2.093-1.22
	C341.465,201.057,340.679,200.941,339.883,200.941"/>
<path fill="#FFFFFF" d="M352.948,217.924c0.585-7.81,0.907-14.122,0.923-18.932l1.684,0.016c0.408,0,0.956-0.006,1.634-0.016
	l-0.253,3.74c0.321-0.523,0.557-0.923,0.753-1.201c0.178-0.278,0.433-0.567,0.744-0.887c0.312-0.305,0.684-0.603,1.099-0.866
	c0.433-0.263,0.923-0.487,1.49-0.677c0.585-0.177,1.159-0.312,1.76-0.396c0.585-0.093,1.178-0.137,1.769-0.137
	c1.069,0,2.101,0.137,3.1,0.399c0.996,0.253,1.811,0.684,2.454,1.278c0.643,0.583,1.083,1.251,1.294,1.987
	c0.212,0.728,0.332,1.523,0.332,2.369c0,0.16-0.01,0.473-0.02,0.931c-0.016,0.464-0.033,1.068-0.083,1.812l-0.355,7.836
	c-0.034,0.745-0.05,1.658-0.069,2.742c-0.557-0.033-1.083-0.049-1.58-0.049c-0.621,0-1.195,0.016-1.737,0.049
	c0.137-1.515,0.229-2.963,0.289-4.358l0.253-4.351c0.076-1.497,0.11-2.622,0.11-3.385c0-1.092-0.176-1.962-0.552-2.623
	c-0.387-0.65-0.979-1.152-1.81-1.506c-0.82-0.363-1.742-0.541-2.768-0.541c-1.446,0-2.682,0.348-3.715,1.021
	c-0.948,0.644-1.691,1.543-2.217,2.708c-0.355,0.848-0.626,2.075-0.763,3.717c-0.186,1.946-0.322,5.06-0.397,9.317
	c-0.701-0.033-1.236-0.049-1.615-0.049C354.312,217.875,353.736,217.891,352.948,217.924"/>
<path fill="#FFFFFF" d="M386.198,217.924l0.213-3.436l0.498-13.127h-2.317c0.06-0.616,0.103-1.387,0.143-2.317h2.42
	c0.025-1.16,0.044-2.047,0.077-2.667c0.025-0.617,0.118-1.166,0.245-1.658c0.128-0.49,0.332-0.915,0.585-1.253
	c0.245-0.346,0.593-0.657,1.049-0.946c0.456-0.288,0.99-0.491,1.574-0.628c0.609-0.127,1.303-0.195,2.099-0.195
	c1.016,0,2.217,0.154,3.588,0.476c0.018,0.745,0.083,1.531,0.196,2.361c-1.193-0.407-2.261-0.616-3.227-0.616
	c-0.475,0-0.913,0.057-1.305,0.186c-0.404,0.126-0.709,0.286-0.956,0.498c-0.245,0.195-0.446,0.474-0.601,0.813
	c-0.152,0.338-0.253,0.735-0.302,1.201c-0.069,0.457-0.094,0.998-0.094,1.624l-0.02,0.805h5.188
	c-0.067,0.541-0.126,1.312-0.176,2.317h-4.993l-0.348,9.529l-0.17,7.033c-0.776-0.033-1.337-0.049-1.699-0.049
	C387.52,217.875,386.961,217.891,386.198,217.924"/>
<path fill="#FFFFFF" d="M406.408,198.57c1.302,0,2.557,0.186,3.725,0.56c1.193,0.371,2.225,0.964,3.08,1.778
	c0.863,0.81,1.523,1.835,1.979,3.061c0.45,1.244,0.676,2.538,0.676,3.909c0,1.484-0.245,2.905-0.728,4.266
	c-0.479,1.354-1.149,2.506-2.013,3.454s-1.929,1.642-3.182,2.082c-1.254,0.439-2.598,0.668-4.028,0.668
	c-1.338,0-2.59-0.203-3.775-0.608c-1.193-0.392-2.217-1.008-3.08-1.861c-0.861-0.84-1.523-1.879-1.979-3.107
	c-0.439-1.235-0.662-2.514-0.662-3.867c0-2.03,0.409-3.86,1.229-5.482c0.82-1.626,2.039-2.835,3.622-3.642
	C402.871,198.969,404.58,198.57,406.408,198.57 M406.315,200.941c-1.278,0-2.446,0.312-3.511,0.946
	c-1.05,0.637-1.855,1.601-2.363,2.871c-0.516,1.276-0.771,2.671-0.771,4.179c0,1.327,0.221,2.513,0.644,3.564
	c0.425,1.057,1.119,1.902,2.091,2.553c0.974,0.653,2.151,0.976,3.519,0.976c0.942,0,1.822-0.162,2.651-0.484
	c0.828-0.312,1.573-0.837,2.199-1.572c0.618-0.737,1.085-1.644,1.379-2.709c0.297-1.066,0.449-2.181,0.449-3.351
	c0-1.101-0.152-2.124-0.449-3.08c-0.294-0.965-0.761-1.735-1.379-2.319c-0.626-0.567-1.312-0.99-2.082-1.22
	C407.916,201.057,407.119,200.941,406.315,200.941"/>
<path fill="#FFFFFF" d="M419.458,217.924c0.446-7.191,0.676-12.921,0.676-17.213l-0.016-1.719c0.626,0.01,1.151,0.016,1.557,0.016
	c0.484,0,1.016-0.006,1.601-0.016l-0.162,3.106c0.466-0.771,0.871-1.354,1.229-1.743c0.361-0.391,0.751-0.719,1.209-0.981
	c0.441-0.245,0.957-0.449,1.523-0.585c0.567-0.143,1.158-0.22,1.776-0.22c0.518,0,1.035,0.067,1.549,0.194
	c0.01,0.829,0.052,1.744,0.121,2.768c-0.771-0.209-1.465-0.322-2.075-0.322c-0.744,0-1.404,0.129-1.981,0.355
	c-0.591,0.255-1.116,0.617-1.591,1.108c-0.456,0.5-0.845,1.075-1.134,1.763c-0.253,0.558-0.448,1.269-0.575,2.132
	c-0.136,0.861-0.236,2.454-0.312,4.756c-0.054,1.686-0.077,3.461-0.077,5.351v1.25c-0.67-0.033-1.217-0.049-1.608-0.049
	C420.796,217.875,420.221,217.891,419.458,217.924"/>
<path fill="#FFFFFF" d="M451.988,215.479c-0.144,0.61-0.288,1.414-0.458,2.42c-0.836,0.195-1.514,0.332-2.012,0.371
	c-0.501,0.054-0.976,0.077-1.424,0.077c-1.099,0-1.996-0.144-2.672-0.423c-0.678-0.278-1.195-0.727-1.566-1.343
	c-0.355-0.629-0.533-1.459-0.533-2.516c0-0.137,0-0.379,0.016-0.737c0.02-0.346,0.069-1.557,0.186-3.645l0.459-8.372h-2.504
	c0.05-0.525,0.099-1.278,0.117-2.234h2.582c0.059-0.703,0.118-1.895,0.176-3.564c1.168-0.234,2.167-0.448,2.979-0.649
	c-0.101,1.845-0.152,3.25-0.168,4.214h5.194c-0.067,0.778-0.101,1.523-0.117,2.234h-5.164l-0.523,10.535l-0.019,0.804
	c0,0.915,0.104,1.593,0.316,2.041c0.202,0.455,0.514,0.787,0.929,0.99c0.405,0.195,0.838,0.288,1.278,0.288
	c0.312,0,0.645-0.018,1.016-0.068C450.441,215.86,451.082,215.715,451.988,215.479"/>
<path fill="#FFFFFF" d="M454.816,217.924l0.464-8.132l0.433-11.078l0.118-6.297l1.699,0.025c0.433,0,0.984-0.01,1.652-0.025
	l-0.39,6.498l-0.16,3.877c0.297-0.542,0.55-0.965,0.771-1.284c0.22-0.314,0.508-0.627,0.846-0.958
	c0.336-0.303,0.693-0.585,1.065-0.805c0.373-0.219,0.804-0.423,1.252-0.575c0.475-0.178,1.016-0.321,1.66-0.44
	c0.66-0.101,1.338-0.16,2.047-0.16c1.049,0,2.064,0.117,3.03,0.355c0.965,0.245,1.795,0.635,2.488,1.168
	c0.676,0.56,1.157,1.219,1.406,1.972c0.261,0.761,0.388,1.523,0.388,2.312c0,0.305,0,0.72-0.017,1.228
	c-0.035,0.776-0.084,1.673-0.151,2.707l-0.322,6.871c-0.033,0.745-0.06,1.658-0.077,2.742c-0.719-0.033-1.278-0.049-1.666-0.049
	c-0.424,0-1.015,0.016-1.762,0.049c0.128-1.343,0.288-3.461,0.484-6.346c0.176-2.887,0.278-4.892,0.278-6.019
	c0-0.981-0.186-1.812-0.552-2.462c-0.355-0.634-0.956-1.151-1.792-1.497c-0.829-0.348-1.752-0.508-2.785-0.508
	c-0.931,0-1.812,0.134-2.608,0.423c-0.743,0.261-1.369,0.626-1.885,1.101c-0.518,0.464-0.923,1.049-1.245,1.732
	c-0.338,0.728-0.566,1.474-0.711,2.219c-0.201,1.178-0.354,2.817-0.44,4.918c-0.06,1.25-0.117,3.393-0.22,6.438
	c-0.693-0.033-1.201-0.049-1.557-0.049C456.221,217.875,455.653,217.891,454.816,217.924"/>
<path fill="#FFFFFF" d="M493.489,214.955c-0.16,0.694-0.302,1.558-0.456,2.614c-1.201,0.307-2.232,0.516-3.116,0.618
	c-0.879,0.109-1.758,0.16-2.622,0.16c-1.557,0-2.961-0.186-4.212-0.559c-1.229-0.372-2.294-1.021-3.183-1.962
	c-0.882-0.923-1.523-1.98-1.897-3.184c-0.389-1.201-0.582-2.462-0.582-3.789c0-1.863,0.354-3.582,1.055-5.173
	c0.713-1.592,1.778-2.833,3.217-3.75c1.422-0.902,3.232-1.354,5.417-1.354c1.143,0,2.227,0.162,3.267,0.49
	c1.031,0.332,1.889,0.83,2.572,1.498c0.693,0.68,1.221,1.507,1.592,2.499c0.372,0.99,0.558,2.072,0.558,3.24
	c0,0.448-0.033,0.879-0.118,1.312h-14.243c-0.06,0.676-0.075,1.201-0.075,1.565c0,1.312,0.271,2.513,0.821,3.615
	c0.532,1.108,1.352,1.938,2.427,2.503c1.068,0.567,2.304,0.846,3.7,0.846C489.224,216.146,491.182,215.751,493.489,214.955
	 M480.882,206.068h11.128c-0.008-0.786-0.062-1.396-0.145-1.835c-0.103-0.431-0.255-0.882-0.492-1.354
	c-0.235-0.469-0.549-0.863-0.954-1.211c-0.415-0.346-0.889-0.611-1.464-0.78c-0.569-0.194-1.186-0.27-1.846-0.27
	c-0.693,0-1.371,0.093-2.015,0.295c-0.645,0.203-1.22,0.466-1.709,0.821c-0.482,0.349-0.907,0.753-1.245,1.228
	c-0.336,0.464-0.601,0.913-0.771,1.348C481.204,204.749,481.042,205.332,480.882,206.068"/>
<path fill="#FFFFFF" d="M15.881,253.358c-0.03,0.195-0.098,0.566-0.204,1.108c-0.11,0.533-0.198,1.066-0.274,1.584
	c-0.911,0.22-1.778,0.354-2.62,0.431c-0.838,0.083-1.574,0.119-2.21,0.119c-1.34,0-2.588-0.186-3.722-0.55
	c-1.139-0.355-2.133-0.956-2.976-1.786c-0.85-0.819-1.472-1.853-1.869-3.08c-0.403-1.229-0.601-2.522-0.601-3.876
	c0-1.83,0.329-3.572,0.981-5.212c0.639-1.645,1.663-2.938,3.059-3.871c1.393-0.938,3.301-1.404,5.701-1.404
	c1.768,0,3.503,0.247,5.183,0.721c0.068,1.05,0.14,1.913,0.2,2.599c-1.186-0.374-2.158-0.627-2.903-0.753
	c-0.745-0.129-1.438-0.205-2.069-0.205c-1.104,0-2.082,0.213-2.95,0.61c-0.867,0.398-1.604,0.966-2.217,1.703
	c-0.605,0.732-1.049,1.596-1.316,2.611c-0.271,1.016-0.402,2.041-0.402,3.091c0,1.414,0.219,2.64,0.651,3.706
	c0.433,1.057,1.206,1.879,2.29,2.454c1.091,0.577,2.313,0.873,3.673,0.873C12.602,254.231,14.137,253.935,15.881,253.358"/>
<path fill="#FFFFFF" d="M29.459,236.821c1.307,0,2.555,0.18,3.736,0.569c1.184,0.363,2.208,0.956,3.075,1.768
	c0.868,0.82,1.523,1.836,1.977,3.07c0.449,1.229,0.677,2.533,0.677,3.904c0,1.479-0.245,2.9-0.728,4.264
	c-0.478,1.346-1.155,2.497-2.013,3.454c-0.872,0.948-1.931,1.642-3.178,2.08c-1.256,0.44-2.602,0.67-4.032,0.67
	c-1.334,0-2.598-0.202-3.775-0.61c-1.188-0.388-2.213-1.016-3.08-1.861c-0.863-0.838-1.523-1.879-1.972-3.114
	c-0.453-1.219-0.677-2.513-0.677-3.86c0-2.031,0.415-3.856,1.24-5.482c0.821-1.624,2.026-2.836,3.622-3.647
	C25.935,237.22,27.639,236.821,29.459,236.821 M29.374,239.192c-1.272,0-2.445,0.312-3.512,0.948
	c-1.066,0.642-1.853,1.601-2.365,2.868c-0.512,1.278-0.762,2.676-0.762,4.189c0,1.319,0.208,2.505,0.63,3.562
	c0.429,1.052,1.13,1.905,2.099,2.557c0.968,0.637,2.142,0.955,3.521,0.955c0.935,0,1.818-0.15,2.648-0.473
	c0.842-0.314,1.57-0.838,2.192-1.574c0.626-0.728,1.083-1.641,1.388-2.707c0.295-1.06,0.439-2.184,0.439-3.354
	c0-1.1-0.144-2.123-0.439-3.088c-0.305-0.956-0.762-1.727-1.379-2.312c-0.615-0.573-1.317-0.981-2.096-1.217
	C30.957,239.31,30.17,239.192,29.374,239.192"/>
<path fill="#FFFFFF" d="M42.441,256.169c0.593-7.805,0.893-14.117,0.923-18.924l1.688,0.018c0.406,0,0.952-0.01,1.628-0.018
	l-0.249,3.742c0.308-0.527,0.562-0.925,0.753-1.205c0.183-0.287,0.432-0.581,0.746-0.88c0.312-0.312,0.677-0.608,1.099-0.879
	c0.425-0.263,0.928-0.482,1.499-0.668c0.571-0.18,1.155-0.322,1.744-0.399c0.597-0.085,1.185-0.136,1.768-0.136
	c1.075,0,2.112,0.136,3.11,0.399c0.995,0.263,1.811,0.684,2.45,1.268c0.644,0.601,1.075,1.261,1.296,1.998
	c0.215,0.727,0.325,1.523,0.325,2.361c0,0.172-0.008,0.483-0.017,0.938c-0.017,0.458-0.042,1.068-0.076,1.812l-0.364,7.83
	c-0.026,0.75-0.051,1.657-0.059,2.742c-0.568-0.026-1.093-0.044-1.596-0.044c-0.609,0-1.189,0.018-1.726,0.044
	c0.129-1.508,0.223-2.964,0.287-4.351l0.25-4.349c0.081-1.492,0.115-2.616,0.115-3.379c0-1.101-0.19-1.979-0.563-2.632
	c-0.373-0.651-0.973-1.159-1.794-1.515c-0.825-0.356-1.752-0.534-2.775-0.534c-1.447,0-2.683,0.348-3.716,1.025
	c-0.953,0.645-1.692,1.547-2.208,2.709c-0.365,0.846-0.626,2.07-0.775,3.715c-0.19,1.943-0.317,5.06-0.397,9.31
	c-0.693-0.026-1.231-0.044-1.612-0.044C43.803,256.125,43.224,256.143,42.441,256.169"/>
<path fill="#FFFFFF" d="M75.175,253.729c-0.139,0.61-0.289,1.415-0.453,2.421c-0.851,0.195-1.515,0.313-2.019,0.375
	c-0.495,0.049-0.973,0.075-1.414,0.075c-1.108,0-2.001-0.152-2.687-0.415c-0.677-0.288-1.192-0.737-1.557-1.354
	c-0.355-0.618-0.538-1.456-0.538-2.513c0-0.137,0.009-0.382,0.017-0.737c0.009-0.348,0.076-1.557,0.191-3.64l0.456-8.379h-2.512
	c0.054-0.523,0.096-1.278,0.13-2.24h2.564c0.063-0.693,0.123-1.889,0.19-3.555c1.172-0.239,2.158-0.458,2.975-0.654
	c-0.098,1.846-0.148,3.253-0.156,4.209h5.183c-0.063,0.786-0.097,1.531-0.114,2.24h-5.167l-0.521,10.539l-0.016,0.794
	c0,0.923,0.097,1.593,0.305,2.057c0.207,0.448,0.521,0.776,0.926,0.972c0.42,0.204,0.843,0.297,1.292,0.297
	c0.313,0,0.652-0.016,1.015-0.067C73.623,254.105,74.266,253.968,75.175,253.729"/>
<path fill="#FFFFFF" d="M77.874,256.169c0.44-7.196,0.665-12.916,0.665-17.207l-0.018-1.717c0.635,0.008,1.165,0.018,1.569,0.018
	c0.479,0,1.008-0.01,1.597-0.018l-0.157,3.105c0.461-0.771,0.876-1.355,1.223-1.744c0.355-0.397,0.762-0.72,1.21-0.973
	c0.453-0.255,0.958-0.448,1.52-0.601c0.571-0.136,1.159-0.213,1.768-0.213c0.53,0,1.038,0.067,1.548,0.195
	c0.018,0.83,0.064,1.753,0.132,2.767c-0.77-0.21-1.465-0.32-2.083-0.32c-0.727,0-1.392,0.118-1.977,0.363
	c-0.587,0.245-1.117,0.61-1.582,1.101c-0.47,0.5-0.851,1.083-1.147,1.761c-0.249,0.557-0.44,1.252-0.571,2.134
	c-0.131,0.863-0.232,2.453-0.313,4.753c-0.043,1.686-0.068,3.472-0.068,5.351v1.245c-0.677-0.026-1.213-0.044-1.62-0.044
	C79.199,256.125,78.628,256.143,77.874,256.169"/>
<path fill="#FFFFFF" d="M100.712,236.821c1.306,0,2.556,0.18,3.744,0.569c1.177,0.363,2.201,0.956,3.076,1.768
	c0.858,0.82,1.515,1.836,1.967,3.07c0.45,1.229,0.678,2.533,0.678,3.904c0,1.479-0.246,2.9-0.719,4.264
	c-0.486,1.346-1.155,2.497-2.023,3.454c-0.862,0.948-1.929,1.642-3.178,2.08c-1.255,0.44-2.602,0.67-4.027,0.67
	c-1.338,0-2.602-0.202-3.779-0.61c-1.188-0.388-2.213-1.016-3.084-1.861c-0.859-0.838-1.52-1.879-1.968-3.114
	c-0.454-1.219-0.678-2.513-0.678-3.86c0-2.031,0.415-3.856,1.24-5.482c0.822-1.624,2.027-2.836,3.631-3.647
	C97.187,237.22,98.891,236.821,100.712,236.821 M100.627,239.192c-1.274,0-2.438,0.312-3.512,0.948
	c-1.067,0.642-1.846,1.601-2.358,2.868c-0.52,1.278-0.77,2.676-0.77,4.189c0,1.319,0.208,2.505,0.63,3.562
	c0.428,1.052,1.13,1.905,2.099,2.557c0.969,0.637,2.141,0.955,3.521,0.955c0.927,0,1.82-0.15,2.648-0.473
	c0.843-0.314,1.57-0.838,2.192-1.574c0.625-0.728,1.084-1.641,1.388-2.707c0.296-1.06,0.444-2.184,0.444-3.354
	c0-1.1-0.148-2.123-0.444-3.088c-0.304-0.956-0.763-1.727-1.38-2.312c-0.614-0.573-1.316-0.981-2.094-1.217
	C102.213,239.31,101.422,239.192,100.627,239.192"/>
<path fill="#FFFFFF" d="M113.846,256.169c0.254-3.835,0.495-8.382,0.736-13.635c0.165-3.825,0.28-7.776,0.356-11.864l1.734,0.018
	c0.356,0,0.91,0,1.655-0.018l-0.579,10.967l-0.407,11.094l-0.081,3.438c-0.736-0.026-1.281-0.044-1.645-0.044
	C115.466,256.125,114.878,256.143,113.846,256.169"/>
<path fill="#FFFFFF" d="M141.375,236.821c1.307,0,2.547,0.18,3.736,0.569c1.186,0.363,2.209,0.956,3.078,1.768
	c0.862,0.82,1.522,1.836,1.972,3.07c0.451,1.229,0.677,2.533,0.677,3.904c0,1.479-0.242,2.9-0.728,4.264
	c-0.473,1.346-1.142,2.497-2.019,3.454c-0.868,0.948-1.925,1.642-3.173,2.08c-1.258,0.44-2.599,0.67-4.03,0.67
	c-1.333,0-2.597-0.202-3.777-0.61c-1.185-0.388-2.209-1.016-3.085-1.861c-0.867-0.838-1.515-1.879-1.968-3.114
	c-0.448-1.219-0.676-2.513-0.676-3.86c0-2.031,0.418-3.856,1.24-5.482c0.825-1.624,2.03-2.836,3.622-3.647
	C137.846,237.22,139.555,236.821,141.375,236.821 M141.286,239.192c-1.273,0-2.441,0.312-3.508,0.948
	c-1.066,0.642-1.852,1.601-2.365,2.868c-0.512,1.278-0.762,2.676-0.762,4.189c0,1.319,0.208,2.505,0.63,3.562
	c0.423,1.052,1.117,1.905,2.099,2.557c0.969,0.637,2.141,0.955,3.517,0.955c0.925,0,1.818-0.15,2.652-0.473
	c0.829-0.314,1.57-0.838,2.192-1.574c0.622-0.728,1.084-1.641,1.379-2.707c0.3-1.06,0.448-2.184,0.448-3.354
	c0-1.1-0.148-2.123-0.448-3.088c-0.295-0.956-0.758-1.727-1.372-2.312c-0.613-0.573-1.315-0.981-2.099-1.217
	C142.873,239.31,142.086,239.192,141.286,239.192"/>
<path fill="#FFFFFF" d="M154.979,256.169l0.208-3.428l0.504-13.135h-2.333c0.068-0.611,0.109-1.382,0.156-2.311h2.409
	c0.026-1.159,0.059-2.049,0.085-2.665c0.03-0.618,0.114-1.18,0.245-1.667c0.131-0.484,0.322-0.907,0.58-1.245
	c0.25-0.338,0.606-0.652,1.058-0.948c0.457-0.288,0.978-0.492,1.579-0.624c0.604-0.129,1.299-0.196,2.078-0.196
	c1.032,0,2.229,0.152,3.588,0.465c0.034,0.753,0.105,1.541,0.208,2.379c-1.185-0.423-2.26-0.627-3.225-0.627
	c-0.466,0-0.91,0.06-1.308,0.176c-0.389,0.137-0.71,0.299-0.953,0.508c-0.244,0.206-0.443,0.475-0.601,0.807
	c-0.151,0.346-0.258,0.744-0.309,1.201c-0.063,0.466-0.088,1.008-0.088,1.634l-0.018,0.804h5.177
	c-0.061,0.542-0.115,1.32-0.166,2.311h-5l-0.339,9.536l-0.166,7.026c-0.778-0.026-1.341-0.044-1.704-0.044
	C156.296,256.125,155.741,256.143,154.979,256.169"/>
<path fill="#FFFFFF" d="M175.822,256.169l0.199-3.428l0.503-13.135h-2.322c0.063-0.611,0.113-1.382,0.157-2.311h2.408
	c0.03-1.159,0.055-2.049,0.08-2.665c0.035-0.618,0.114-1.18,0.242-1.667c0.14-0.484,0.329-0.907,0.579-1.245
	c0.263-0.338,0.609-0.652,1.058-0.948c0.461-0.288,0.991-0.492,1.586-0.624c0.605-0.129,1.299-0.196,2.083-0.196
	c1.02,0,2.226,0.152,3.596,0.465c0.018,0.753,0.085,1.541,0.192,2.379c-1.182-0.423-2.256-0.627-3.217-0.627
	c-0.478,0-0.91,0.06-1.308,0.176c-0.402,0.137-0.71,0.299-0.964,0.508c-0.242,0.206-0.439,0.475-0.597,0.807
	c-0.148,0.346-0.25,0.744-0.313,1.201c-0.052,0.466-0.085,1.008-0.085,1.634l-0.008,0.804h5.171c-0.061,0.542-0.11,1.32-0.165,2.311
	h-4.998l-0.338,9.536l-0.174,7.026c-0.771-0.026-1.346-0.044-1.701-0.044C177.143,256.125,176.584,256.143,175.822,256.169"/>
<path fill="#FFFFFF" d="M196.023,236.821c1.312,0,2.547,0.18,3.741,0.569c1.185,0.363,2.2,0.956,3.071,1.768
	c0.873,0.82,1.532,1.836,1.972,3.07c0.458,1.229,0.677,2.533,0.677,3.904c0,1.479-0.237,2.9-0.727,4.264
	c-0.475,1.346-1.152,2.497-2.006,3.454c-0.871,0.948-1.938,1.642-3.191,2.08c-1.252,0.44-2.598,0.67-4.028,0.67
	c-1.328,0-2.594-0.202-3.778-0.61c-1.181-0.388-2.214-1.016-3.068-1.861c-0.876-0.838-1.527-1.879-1.977-3.114
	c-0.452-1.219-0.677-2.513-0.677-3.86c0-2.031,0.406-3.856,1.231-5.482c0.83-1.624,2.036-2.836,3.631-3.647
	C192.491,237.22,194.205,236.821,196.023,236.821 M195.938,239.192c-1.272,0-2.446,0.312-3.511,0.948
	c-1.063,0.642-1.854,1.601-2.366,2.868c-0.512,1.278-0.762,2.676-0.762,4.189c0,1.319,0.208,2.505,0.634,3.562
	c0.424,1.052,1.117,1.905,2.094,2.557c0.974,0.637,2.142,0.955,3.521,0.955c0.935,0,1.819-0.15,2.648-0.473
	c0.839-0.314,1.566-0.838,2.191-1.574c0.617-0.728,1.076-1.641,1.381-2.707c0.303-1.06,0.448-2.184,0.448-3.354
	c0-1.1-0.145-2.123-0.448-3.088c-0.305-0.956-0.764-1.727-1.381-2.312c-0.608-0.573-1.303-0.981-2.082-1.217
	C197.526,239.31,196.733,239.192,195.938,239.192"/>
<path fill="#FFFFFF" d="M218.551,236.821c1.304,0,2.54,0.18,3.732,0.569c1.186,0.363,2.218,0.956,3.072,1.768
	c0.864,0.82,1.523,1.836,1.98,3.07c0.449,1.229,0.678,2.533,0.678,3.904c0,1.479-0.246,2.9-0.727,4.264
	c-0.474,1.346-1.152,2.497-2.016,3.454c-0.879,0.948-1.928,1.642-3.189,2.08c-1.244,0.44-2.59,0.67-4.02,0.67
	c-1.337,0-2.59-0.202-3.774-0.61c-1.186-0.388-2.218-1.016-3.08-1.861c-0.88-0.838-1.523-1.879-1.981-3.114
	c-0.439-1.219-0.66-2.513-0.66-3.86c0-2.031,0.398-3.856,1.218-5.482c0.83-1.624,2.04-2.836,3.631-3.647
	C215.014,237.22,216.723,236.821,218.551,236.821 M218.458,239.192c-1.277,0-2.445,0.312-3.512,0.948
	c-1.049,0.642-1.845,1.601-2.361,2.868c-0.517,1.278-0.762,2.676-0.762,4.189c0,1.319,0.212,2.505,0.635,3.562
	c0.423,1.052,1.116,1.905,2.098,2.557c0.965,0.637,2.132,0.955,3.513,0.955c0.939,0,1.818-0.15,2.648-0.473
	c0.837-0.314,1.574-0.838,2.199-1.574c0.611-0.728,1.084-1.641,1.389-2.707c0.288-1.06,0.44-2.184,0.44-3.354
	c0-1.1-0.153-2.123-0.44-3.088c-0.305-0.956-0.762-1.727-1.389-2.312c-0.617-0.573-1.311-0.981-2.089-1.217
	C220.042,239.31,219.263,239.192,218.458,239.192"/>
<path fill="#FFFFFF" d="M241.198,253.729c-0.144,0.61-0.288,1.415-0.457,2.421c-0.847,0.195-1.515,0.313-2.014,0.375
	c-0.492,0.049-0.973,0.075-1.422,0.075c-1.101,0-1.997-0.152-2.674-0.415c-0.677-0.288-1.201-0.737-1.565-1.354
	c-0.356-0.618-0.533-1.456-0.533-2.513c0-0.137,0-0.382,0.016-0.737c0-0.348,0.068-1.557,0.188-3.64l0.456-8.379h-2.504
	c0.05-0.523,0.084-1.278,0.118-2.24h2.573c0.059-0.693,0.127-1.889,0.186-3.555c1.168-0.239,2.167-0.458,2.979-0.654
	c-0.102,1.846-0.151,3.253-0.169,4.209h5.196c-0.067,0.786-0.102,1.531-0.119,2.24h-5.163l-0.524,10.539l-0.017,0.794
	c0,0.923,0.102,1.593,0.305,2.057c0.211,0.448,0.508,0.776,0.93,0.972c0.415,0.204,0.847,0.297,1.287,0.297
	c0.313,0,0.651-0.016,1.015-0.067C239.65,254.105,240.284,253.968,241.198,253.729"/>
<path fill="#FFFFFF" d="M241.782,247.553c0.094-0.923,0.143-1.753,0.143-2.489c1.728,0.076,3.285,0.103,4.655,0.103
	c1.32,0,2.87-0.026,4.639-0.103c-0.085,0.873-0.136,1.703-0.153,2.489c-1.558-0.067-3.115-0.093-4.688-0.093
	C244.888,247.46,243.364,247.486,241.782,247.553"/>
<path fill="#FFFFFF" d="M254.637,240.256c0.119-0.541,0.236-1.344,0.356-2.41c1.488-0.39,2.792-0.66,3.892-0.812
	c1.101-0.136,2.175-0.213,3.224-0.213c1.118,0,2.175,0.103,3.148,0.316c0.991,0.193,1.802,0.531,2.446,0.989
	c0.643,0.465,1.083,0.998,1.286,1.589c0.203,0.603,0.313,1.236,0.313,1.922c0,0.863-0.051,2.31-0.179,4.325
	c-0.126,2.031-0.227,3.9-0.288,5.619c-0.067,1.709-0.101,3.25-0.101,4.588c-0.677-0.026-1.227-0.044-1.65-0.044
	c-0.398,0-0.974,0.018-1.719,0.044l0.389-5.105l0.28-6.024c-0.449,0.338-0.771,0.575-0.99,0.72c-0.22,0.134-0.457,0.253-0.728,0.379
	c-0.271,0.11-0.576,0.222-0.915,0.332c-0.32,0.11-0.956,0.286-1.912,0.558c-0.948,0.263-1.625,0.448-2.014,0.595
	c-0.863,0.278-1.541,0.547-2.04,0.819c-0.499,0.278-0.905,0.583-1.261,0.905c-0.321,0.32-0.559,0.642-0.694,0.964
	c-0.151,0.399-0.245,0.812-0.245,1.261c0,0.678,0.195,1.255,0.602,1.76c0.397,0.5,0.896,0.84,1.497,1.025
	c0.619,0.196,1.33,0.295,2.184,0.295c0.516,0,1.066-0.039,1.649-0.108c0.559-0.067,1.321-0.263,2.294-0.567
	c-0.178,0.49-0.373,1.227-0.609,2.227c-0.906,0.168-1.65,0.278-2.217,0.322c-0.568,0.049-1.117,0.075-1.633,0.075
	c-1.693,0-3.039-0.202-3.995-0.61c-0.957-0.388-1.676-1.006-2.15-1.818c-0.474-0.813-0.711-1.703-0.711-2.659
	c0-0.567,0.093-1.083,0.254-1.557c0.169-0.475,0.406-0.897,0.677-1.284c0.288-0.382,0.694-0.771,1.236-1.162
	c0.525-0.389,1.066-0.693,1.65-0.946c0.584-0.255,1.261-0.508,2.022-0.747c0.778-0.245,2.015-0.564,3.716-0.979
	c0.549-0.119,1.015-0.255,1.404-0.382c0.38-0.126,0.727-0.261,1.024-0.381c0.288-0.127,0.559-0.269,0.786-0.438
	c0.229-0.178,0.423-0.374,0.618-0.616c0.178-0.247,0.322-0.492,0.407-0.737c0.093-0.255,0.127-0.502,0.127-0.747
	c0-0.616-0.195-1.132-0.602-1.564c-0.389-0.446-0.905-0.735-1.549-0.923c-0.634-0.16-1.405-0.261-2.276-0.261
	c-0.813,0-1.641,0.075-2.488,0.201c-0.864,0.127-1.591,0.287-2.209,0.459C256.329,239.64,255.568,239.895,254.637,240.256"/>
<path fill="#FFFFFF" d="M273.662,256.169c0.592-7.805,0.895-14.117,0.92-18.924l1.693,0.018c0.406,0,0.94-0.01,1.635-0.018
	l-0.254,3.742c0.321-0.527,0.557-0.925,0.743-1.205c0.186-0.287,0.439-0.581,0.754-0.88c0.313-0.312,0.669-0.608,1.1-0.879
	c0.424-0.263,0.923-0.482,1.499-0.668c0.575-0.18,1.151-0.322,1.743-0.399c0.592-0.085,1.186-0.136,1.777-0.136
	c1.068,0,2.098,0.136,3.098,0.399c0.998,0.263,1.812,0.684,2.453,1.268c0.643,0.601,1.077,1.261,1.287,1.998
	c0.22,0.727,0.338,1.523,0.338,2.361c0,0.172-0.016,0.483-0.016,0.938c-0.018,0.458-0.053,1.068-0.084,1.812l-0.375,7.83
	c-0.025,0.75-0.034,1.657-0.049,2.742c-0.56-0.026-1.093-0.044-1.583-0.044c-0.619,0-1.194,0.018-1.736,0.044
	c0.136-1.508,0.219-2.964,0.288-4.351l0.238-4.349c0.084-1.492,0.127-2.616,0.127-3.379c0-1.101-0.18-1.979-0.569-2.632
	c-0.372-0.651-0.963-1.159-1.793-1.515c-0.821-0.356-1.743-0.534-2.777-0.534c-1.437,0-2.681,0.348-3.722,1.025
	c-0.95,0.645-1.677,1.547-2.201,2.709c-0.365,0.846-0.628,2.07-0.771,3.715c-0.177,1.943-0.313,5.06-0.397,9.31
	c-0.695-0.026-1.237-0.044-1.609-0.044C275.031,256.125,274.449,256.143,273.662,256.169"/>
<path fill="#FFFFFF" d="M314.52,256.208c-0.744-0.023-1.252-0.031-1.541-0.031h-1.626l0.222-4.028
	c-0.39,0.693-0.729,1.234-1.016,1.614c-0.288,0.381-0.637,0.736-1.016,1.076c-0.397,0.338-0.861,0.643-1.379,0.905
	c-0.516,0.272-1.083,0.481-1.717,0.626c-0.645,0.154-1.305,0.229-2.016,0.229c-1.201,0-2.335-0.229-3.385-0.66
	c-1.066-0.433-1.956-1.059-2.692-1.861c-0.734-0.813-1.27-1.76-1.591-2.835c-0.32-1.075-0.481-2.211-0.481-3.369
	c0-1.584,0.304-3.123,0.914-4.637c0.617-1.518,1.474-2.777,2.599-3.775c1.108-0.982,2.37-1.676,3.773-2.057
	c1.423-0.39,2.912-0.585,4.495-0.585c1.098,0,2.395,0.126,3.899,0.373c0.067-1.361,0.104-2.487,0.104-3.376
	c0-1.305-0.011-2.354-0.017-3.147l1.689,0.018c0.425,0,0.982-0.01,1.693-0.018l-0.541,10.552l-0.372,12.094V256.208z
	 M311.827,239.563c-0.743-0.229-1.369-0.361-1.905-0.431c-0.531-0.067-1.049-0.093-1.547-0.093c-1.201,0-2.343,0.178-3.436,0.516
	c-1.091,0.348-2.047,0.905-2.877,1.686c-0.829,0.794-1.474,1.784-1.922,2.995c-0.449,1.201-0.668,2.387-0.668,3.546
	c0,1.168,0.219,2.243,0.634,3.24c0.423,0.998,1.083,1.786,1.972,2.361c0.897,0.569,1.929,0.838,3.124,0.838
	c0.701,0,1.346-0.083,1.938-0.286c0.585-0.188,1.116-0.475,1.59-0.846c0.49-0.376,0.949-0.874,1.372-1.518
	c0.42-0.635,0.762-1.369,0.997-2.191c0.214-0.745,0.374-1.734,0.475-2.97c0.051-0.618,0.101-1.796,0.16-3.538L311.827,239.563z"/>
<path fill="#FFFFFF" d="M317.381,247.553c0.101-0.923,0.16-1.753,0.16-2.489c1.719,0.076,3.266,0.103,4.629,0.103
	c1.338,0,2.895-0.026,4.655-0.103c-0.085,0.873-0.137,1.703-0.154,2.489c-1.557-0.067-3.114-0.093-4.679-0.093
	C320.505,247.46,318.953,247.486,317.381,247.553"/>
<path fill="#FFFFFF" d="M329.023,256.169l0.204-2.709c0.033-0.577,0.085-1.474,0.152-2.709l0.448-11.374
	c0.01-0.938,0.018-1.649,0.018-2.132c0.593,0.008,1.124,0.018,1.616,0.018c0.516,0,1.031-0.01,1.549-0.018l-0.162,3.487
	c0.425-0.695,0.797-1.263,1.135-1.668c0.355-0.415,0.813-0.796,1.371-1.142c0.551-0.348,1.186-0.62,1.912-0.807
	c0.713-0.193,1.456-0.296,2.227-0.296c0.533,0,1.065,0.062,1.583,0.188c0.531,0.129,1.006,0.295,1.454,0.523
	c0.44,0.222,0.813,0.475,1.136,0.763c0.32,0.297,0.567,0.608,0.761,0.931c0.193,0.338,0.39,0.83,0.583,1.456
	c0.771-1.423,1.709-2.42,2.851-3.003c1.137-0.562,2.415-0.857,3.812-0.857c0.905,0,1.776,0.146,2.614,0.425
	c0.827,0.296,1.505,0.701,2.005,1.234c0.492,0.542,0.83,1.101,1,1.678c0.168,0.575,0.253,1.158,0.253,1.748
	c0,0.585-0.044,1.492-0.137,2.686c-0.083,1.201-0.186,3.021-0.302,5.457c-0.103,2.456-0.17,4.495-0.186,6.121
	c-0.645-0.026-1.17-0.044-1.542-0.044c-0.396,0-0.991,0.018-1.768,0.044c0.142-1.678,0.261-3.505,0.354-5.493l0.247-4.631
	c0.059-1.116,0.093-2.07,0.093-2.895c0-0.727-0.093-1.284-0.229-1.691c-0.152-0.415-0.396-0.788-0.711-1.101
	c-0.338-0.321-0.753-0.576-1.237-0.736c-0.487-0.176-1.039-0.253-1.657-0.253c-0.5,0-0.964,0.051-1.387,0.154
	c-0.392,0.126-0.778,0.294-1.152,0.514c-0.415,0.236-0.778,0.535-1.108,0.881c-0.312,0.338-0.583,0.719-0.812,1.142
	c-0.245,0.431-0.433,0.959-0.585,1.56c-0.176,0.75-0.322,1.665-0.397,2.748c-0.077,1.151-0.154,2.683-0.211,4.569l-0.135,5.232
	c-0.728-0.026-1.271-0.044-1.644-0.044c-0.322,0-0.896,0.018-1.684,0.044c0.127-1.541,0.214-3.124,0.307-4.758l0.209-4.519
	c0.069-1.395,0.103-2.58,0.103-3.562c0-0.644-0.067-1.178-0.195-1.626c-0.116-0.438-0.346-0.838-0.701-1.209
	c-0.338-0.371-0.753-0.654-1.237-0.84c-0.49-0.193-1.023-0.286-1.606-0.286c-0.628,0-1.211,0.101-1.775,0.319
	c-0.552,0.214-1.069,0.534-1.542,0.959c-0.474,0.433-0.865,0.946-1.192,1.564c-0.322,0.61-0.585,1.431-0.755,2.42
	c-0.186,1.008-0.322,2.761-0.423,5.248s-0.16,4.596-0.16,6.289c-0.794-0.026-1.346-0.044-1.649-0.044
	C330.413,256.125,329.838,256.143,329.023,256.169"/>
<path fill="#FFFFFF" d="M371.305,236.821c1.312,0,2.555,0.18,3.74,0.569c1.186,0.363,2.209,0.956,3.08,1.768
	c0.863,0.82,1.523,1.836,1.981,3.07c0.439,1.229,0.658,2.533,0.658,3.904c0,1.479-0.235,2.9-0.727,4.264
	c-0.475,1.346-1.152,2.497-2.006,3.454c-0.871,0.948-1.92,1.642-3.173,2.08c-1.261,0.44-2.606,0.67-4.036,0.67
	c-1.33,0-2.589-0.202-3.784-0.61c-1.186-0.388-2.217-1.016-3.072-1.861c-0.871-0.838-1.521-1.879-1.972-3.114
	c-0.456-1.219-0.668-2.513-0.668-3.86c0-2.031,0.397-3.856,1.228-5.482c0.827-1.624,2.03-2.836,3.621-3.647
	C367.767,237.22,369.493,236.821,371.305,236.821 M371.222,239.192c-1.272,0-2.439,0.312-3.505,0.948
	c-1.066,0.642-1.863,1.601-2.371,2.868c-0.508,1.278-0.761,2.676-0.761,4.189c0,1.319,0.204,2.505,0.627,3.562
	c0.431,1.052,1.134,1.905,2.1,2.557c0.973,0.637,2.148,0.955,3.52,0.955c0.938,0,1.817-0.15,2.657-0.473
	c0.83-0.314,1.564-0.838,2.183-1.574c0.627-0.728,1.083-1.641,1.39-2.707c0.302-1.06,0.438-2.184,0.438-3.354
	c0-1.1-0.137-2.123-0.438-3.088c-0.307-0.956-0.763-1.727-1.39-2.312c-0.608-0.573-1.304-0.981-2.082-1.217
	C372.811,239.31,372.015,239.192,371.222,239.192"/>
<path fill="#FFFFFF" d="M402.176,256.169c-0.606-0.026-1.134-0.044-1.564-0.044c-0.5,0-1.016,0.018-1.549,0.044l0.093-3.608
	c-0.295,0.567-0.55,1-0.769,1.305c-0.22,0.312-0.492,0.61-0.814,0.896c-0.338,0.299-0.659,0.544-1.005,0.753
	c-0.349,0.186-0.753,0.375-1.212,0.525c-0.458,0.152-0.999,0.289-1.606,0.397c-0.61,0.103-1.288,0.162-1.981,0.162
	c-1.523,0-2.812-0.229-3.894-0.693c-1.081-0.475-1.896-1.108-2.452-1.972c-0.562-0.846-0.83-2.008-0.83-3.478
	c0-0.224,0.016-0.603,0.033-1.146c0.034-0.531,0.069-1.225,0.119-2.088l0.312-6.229l0.06-1.988c0.008-0.466,0.018-1.049,0.018-1.76
	l1.72,0.018c0.346,0,0.887-0.01,1.596-0.018c-0.166,2.175-0.336,4.567-0.487,7.16c-0.152,2.588-0.222,4.246-0.222,4.967
	c0,1.101,0.168,1.972,0.523,2.632c0.357,0.66,0.948,1.157,1.778,1.516c0.82,0.363,1.761,0.541,2.81,0.541
	c0.933,0,1.812-0.17,2.665-0.49c0.72-0.288,1.33-0.678,1.828-1.159c0.535-0.544,0.989-1.228,1.347-2.083
	c0.253-0.626,0.465-1.433,0.591-2.404c0.104-0.709,0.18-1.995,0.263-3.841c0.111-2.234,0.18-4.528,0.214-6.838l1.742,0.018
	c0.372,0,0.896-0.01,1.573-0.018c-0.186,2.242-0.39,5.652-0.635,10.215C402.297,249.981,402.21,252.883,402.176,256.169"/>
<path fill="#FFFFFF" d="M416.731,253.729c-0.116,0.61-0.269,1.415-0.438,2.421c-0.846,0.195-1.523,0.313-2.014,0.375
	c-0.492,0.049-0.974,0.075-1.422,0.075c-1.108,0-1.998-0.152-2.676-0.415c-0.693-0.288-1.201-0.737-1.564-1.354
	c-0.363-0.618-0.531-1.456-0.531-2.513c0-0.137,0-0.382,0.016-0.737c0-0.348,0.067-1.557,0.186-3.64l0.458-8.379h-2.505
	c0.031-0.523,0.093-1.278,0.126-2.24h2.564c0.058-0.693,0.117-1.889,0.187-3.555c1.167-0.239,2.165-0.458,2.961-0.654
	c-0.085,1.846-0.136,3.253-0.136,4.209h5.181c-0.069,0.786-0.104,1.531-0.119,2.24h-5.171l-0.516,10.539l-0.02,0.794
	c0,0.923,0.103,1.593,0.307,2.057c0.201,0.448,0.516,0.776,0.923,0.972c0.415,0.204,0.855,0.297,1.294,0.297
	c0.304,0,0.66-0.016,1.016-0.067C415.192,254.105,415.828,253.968,416.731,253.729"/>
<path fill="#FFFFFF" d="M419.566,256.169l0.467-8.127l0.44-11.075l0.118-6.297l1.693,0.018c0.421,0,0.982,0,1.666-0.018l-0.405,6.5
	l-0.162,3.866c0.305-0.533,0.56-0.956,0.78-1.271c0.22-0.319,0.498-0.642,0.836-0.964c0.348-0.314,0.703-0.577,1.075-0.802
	c0.373-0.229,0.788-0.425,1.254-0.595c0.457-0.16,1.014-0.297,1.658-0.415c0.651-0.119,1.319-0.17,2.031-0.17
	c1.064,0,2.08,0.12,3.046,0.355c0.967,0.229,1.786,0.634,2.479,1.178c0.686,0.549,1.158,1.193,1.413,1.956
	c0.253,0.771,0.389,1.539,0.389,2.317c0,0.314-0.008,0.719-0.016,1.227c-0.043,0.771-0.087,1.676-0.154,2.717l-0.319,6.856
	c-0.034,0.75-0.067,1.657-0.085,2.742c-0.71-0.026-1.271-0.044-1.658-0.044c-0.423,0-1.018,0.018-1.771,0.044
	c0.127-1.338,0.297-3.456,0.482-6.341c0.188-2.884,0.28-4.892,0.28-6.008c0-0.998-0.178-1.812-0.551-2.472
	c-0.354-0.645-0.948-1.142-1.794-1.49c-0.828-0.346-1.761-0.516-2.776-0.516c-0.938,0-1.812,0.137-2.605,0.423
	c-0.745,0.265-1.371,0.627-1.895,1.101c-0.508,0.467-0.923,1.05-1.237,1.737c-0.336,0.727-0.575,1.47-0.711,2.217
	c-0.202,1.175-0.361,2.825-0.438,4.915c-0.069,1.253-0.119,3.402-0.222,6.434c-0.693-0.026-1.209-0.044-1.564-0.044
	C420.981,256.125,420.406,256.143,419.566,256.169"/>
<path fill="#FFFFFF" d="M469.962,256.208c-0.734-0.023-1.234-0.031-1.537-0.031h-1.626l0.235-4.028
	c-0.405,0.693-0.743,1.234-1.021,1.614c-0.289,0.381-0.635,0.736-1.025,1.076c-0.39,0.338-0.846,0.643-1.355,0.905
	c-0.523,0.272-1.099,0.481-1.742,0.626c-0.625,0.154-1.305,0.229-2.006,0.229c-1.209,0-2.344-0.229-3.395-0.66
	c-1.049-0.433-1.944-1.059-2.681-1.861c-0.735-0.813-1.263-1.76-1.585-2.835c-0.318-1.075-0.488-2.211-0.488-3.369
	c0-1.584,0.303-3.123,0.913-4.637c0.61-1.518,1.474-2.777,2.599-3.775c1.108-0.982,2.379-1.676,3.781-2.057
	c1.406-0.39,2.895-0.585,4.487-0.585c1.1,0,2.387,0.126,3.909,0.373c0.058-1.361,0.085-2.487,0.085-3.376
	c0-1.305,0-2.354-0.018-3.147l1.709,0.018c0.415,0,0.982-0.01,1.678-0.018l-0.535,10.552l-0.382,12.094V256.208z M467.289,239.563
	c-0.745-0.229-1.387-0.361-1.921-0.431c-0.531-0.067-1.039-0.093-1.541-0.093c-1.191,0-2.343,0.178-3.443,0.516
	c-1.083,0.348-2.049,0.905-2.859,1.686c-0.84,0.794-1.474,1.784-1.932,2.995c-0.447,1.201-0.676,2.387-0.676,3.546
	c0,1.168,0.221,2.243,0.644,3.24c0.423,0.998,1.081,1.786,1.979,2.361c0.888,0.569,1.913,0.838,3.104,0.838
	c0.713,0,1.365-0.083,1.938-0.286c0.595-0.188,1.136-0.475,1.61-0.846c0.481-0.376,0.93-0.874,1.353-1.518
	c0.423-0.635,0.761-1.369,1.016-2.191c0.204-0.745,0.355-1.734,0.457-2.97c0.059-0.618,0.11-1.796,0.178-3.538L467.289,239.563z"/>
<path fill="#FFFFFF" d="M475.101,256.143l0.33-4.706l0.364-8.039l0.161-6.178l1.699,0.018l1.684-0.018
	c-0.134,1.945-0.269,3.977-0.389,6.101c-0.117,2.124-0.212,4.443-0.279,6.967c-0.075,2.513-0.108,4.467-0.108,5.855
	c-0.78-0.018-1.338-0.027-1.678-0.027C476.581,256.116,475.99,256.125,475.101,256.143 M475.938,233.158
	c0.034-1.168,0.067-2.055,0.067-2.64c0.678,0.016,1.288,0.023,1.812,0.023c0.658,0,1.259-0.008,1.794-0.023
	c-0.018,0.379-0.066,1.261-0.12,2.64c-0.658-0.018-1.251-0.018-1.725-0.018C477.267,233.14,476.666,233.14,475.938,233.158"/>
<path fill="#FFFFFF" d="M482.741,255.83l-0.116-1.369c0-0.154-0.054-0.629-0.152-1.425c1.91,0.83,3.671,1.245,5.287,1.245
	c0.84,0,1.557-0.109,2.142-0.338c0.593-0.22,1.016-0.552,1.319-0.99c0.289-0.448,0.425-0.898,0.425-1.371
	c0-0.271-0.035-0.533-0.103-0.778c-0.093-0.271-0.211-0.516-0.371-0.761c-0.17-0.239-0.405-0.508-0.711-0.807
	c-0.322-0.286-0.982-0.837-1.98-1.649c-1.007-0.813-1.76-1.438-2.268-1.902c-0.525-0.448-0.967-0.917-1.328-1.392
	c-0.365-0.479-0.636-0.962-0.821-1.445c-0.16-0.49-0.253-0.98-0.253-1.48c0-0.794,0.253-1.574,0.761-2.319
	c0.489-0.753,1.234-1.31,2.173-1.676c0.966-0.371,2.074-0.551,3.36-0.551c1.423,0,2.996,0.162,4.705,0.502
	c0.053,0.972,0.126,1.869,0.213,2.688c-1.396-0.585-2.768-0.869-4.139-0.869c-0.728,0-1.405,0.093-2.039,0.284
	c-0.627,0.196-1.085,0.484-1.38,0.884c-0.286,0.379-0.44,0.794-0.44,1.259c0,0.306,0.052,0.584,0.154,0.855
	c0.099,0.278,0.269,0.574,0.531,0.896c0.245,0.314,0.567,0.626,0.923,0.938c0.355,0.307,1.083,0.899,2.149,1.753
	c1.083,0.873,1.811,1.497,2.217,1.912c0.39,0.415,0.745,0.84,1.033,1.271c0.27,0.433,0.473,0.871,0.609,1.302
	c0.134,0.433,0.201,0.863,0.201,1.314c0,0.869-0.253,1.683-0.776,2.426c-0.518,0.747-1.278,1.332-2.304,1.747
	c-1.016,0.404-2.157,0.616-3.436,0.616c-0.524,0-1.148-0.036-1.877-0.108c-0.712-0.069-1.338-0.146-1.838-0.239
	C484.112,256.15,483.488,256.007,482.741,255.83"/>
<path fill="#FFFFFF" d="M514.284,253.206c-0.145,0.686-0.297,1.557-0.448,2.616c-1.186,0.304-2.235,0.5-3.114,0.616
	c-0.873,0.103-1.744,0.162-2.626,0.162c-1.557,0-2.953-0.186-4.198-0.56c-1.234-0.379-2.3-1.023-3.196-1.962
	c-0.874-0.923-1.508-1.981-1.896-3.19c-0.391-1.193-0.576-2.456-0.576-3.784c0-1.86,0.355-3.577,1.049-5.162
	c0.729-1.599,1.794-2.843,3.217-3.756c1.422-0.907,3.232-1.365,5.433-1.365c1.135,0,2.217,0.17,3.249,0.502
	c1.033,0.328,1.896,0.819,2.572,1.497c0.695,0.676,1.219,1.506,1.592,2.496c0.38,0.989,0.56,2.074,0.56,3.242
	c0,0.448-0.034,0.879-0.103,1.302h-14.26c-0.059,0.688-0.076,1.211-0.076,1.574c0,1.305,0.272,2.516,0.821,3.624
	c0.55,1.099,1.361,1.928,2.429,2.495c1.066,0.567,2.31,0.846,3.706,0.846C510.028,254.399,511.973,254.001,514.284,253.206
	 M501.683,244.321h11.138c-0.01-0.788-0.06-1.399-0.154-1.838c-0.085-0.431-0.245-0.879-0.49-1.354
	c-0.237-0.464-0.557-0.873-0.946-1.211c-0.407-0.338-0.898-0.601-1.474-0.776c-0.558-0.188-1.168-0.28-1.828-0.28
	c-0.711,0-1.389,0.101-2.03,0.304c-0.635,0.196-1.204,0.475-1.701,0.822c-0.484,0.346-0.905,0.753-1.245,1.225
	c-0.355,0.469-0.61,0.917-0.778,1.348C502.013,242.991,501.853,243.583,501.683,244.321"/>
<path fill="#FFFFFF" d="M520.274,240.256c0.103-0.541,0.229-1.344,0.348-2.41c1.488-0.39,2.792-0.66,3.895-0.812
	c1.099-0.136,2.182-0.213,3.23-0.213c1.118,0,2.167,0.103,3.14,0.316c0.981,0.193,1.796,0.531,2.445,0.989
	c0.645,0.465,1.075,0.998,1.288,1.589c0.21,0.603,0.322,1.236,0.322,1.922c0,0.863-0.069,2.31-0.195,4.325
	c-0.127,2.031-0.214,3.9-0.28,5.619c-0.067,1.709-0.093,3.25-0.093,4.588c-0.676-0.026-1.228-0.044-1.666-0.044
	c-0.399,0-0.966,0.018-1.711,0.044l0.389-5.105l0.271-6.024c-0.439,0.338-0.761,0.575-0.98,0.72
	c-0.213,0.134-0.458,0.253-0.729,0.379c-0.279,0.11-0.585,0.222-0.907,0.332c-0.328,0.11-0.972,0.286-1.919,0.558
	c-0.95,0.263-1.626,0.448-2.024,0.595c-0.854,0.278-1.529,0.547-2.021,0.819c-0.508,0.278-0.923,0.583-1.261,0.905
	c-0.33,0.32-0.568,0.642-0.701,0.964c-0.17,0.399-0.239,0.812-0.239,1.261c0,0.678,0.186,1.255,0.585,1.76
	c0.405,0.5,0.905,0.84,1.506,1.025c0.608,0.196,1.337,0.295,2.175,0.295c0.523,0,1.075-0.039,1.65-0.108
	c0.566-0.067,1.347-0.263,2.294-0.567c-0.187,0.49-0.372,1.227-0.593,2.227c-0.915,0.168-1.65,0.278-2.233,0.322
	c-0.566,0.049-1.103,0.075-1.616,0.075c-1.711,0-3.04-0.202-4.003-0.61c-0.966-0.388-1.677-1.006-2.142-1.818
	c-0.483-0.813-0.719-1.703-0.719-2.659c0-0.567,0.083-1.083,0.253-1.557c0.162-0.475,0.389-0.897,0.676-1.284
	c0.288-0.382,0.693-0.771,1.229-1.162c0.533-0.389,1.083-0.693,1.666-0.946c0.576-0.255,1.254-0.508,2.015-0.747
	c0.771-0.245,2.014-0.564,3.725-0.979c0.55-0.119,0.998-0.255,1.387-0.382c0.39-0.126,0.737-0.261,1.033-0.381
	c0.295-0.127,0.56-0.269,0.779-0.438c0.229-0.178,0.438-0.374,0.618-0.616c0.176-0.247,0.32-0.492,0.405-0.737
	c0.093-0.255,0.128-0.502,0.128-0.747c0-0.616-0.188-1.132-0.595-1.564c-0.405-0.446-0.913-0.735-1.555-0.923
	c-0.645-0.16-1.405-0.261-2.269-0.261c-0.806,0-1.644,0.075-2.489,0.201c-0.854,0.127-1.591,0.287-2.207,0.459
	C521.958,239.64,521.197,239.895,520.274,240.256"/>
<path fill="#FFFFFF" d="M538.546,255.83l-0.118-1.369c0-0.154-0.052-0.629-0.152-1.425c1.911,0.83,3.691,1.245,5.297,1.245
	c0.84,0,1.55-0.109,2.134-0.338c0.591-0.22,1.031-0.552,1.318-0.99c0.298-0.448,0.44-0.898,0.44-1.371
	c0-0.271-0.033-0.533-0.118-0.778c-0.083-0.271-0.202-0.516-0.372-0.761c-0.16-0.239-0.398-0.508-0.711-0.807
	c-0.322-0.286-0.982-0.837-1.972-1.649c-1.006-0.813-1.759-1.438-2.276-1.902c-0.516-0.448-0.956-0.917-1.321-1.392
	c-0.372-0.479-0.635-0.962-0.811-1.445c-0.178-0.49-0.265-0.98-0.265-1.48c0-0.794,0.249-1.574,0.755-2.319
	c0.508-0.753,1.236-1.31,2.184-1.676c0.948-0.371,2.064-0.551,3.351-0.551c1.431,0,2.995,0.162,4.724,0.502
	c0.05,0.972,0.117,1.869,0.193,2.688c-1.389-0.585-2.775-0.869-4.121-0.869c-0.745,0-1.423,0.093-2.047,0.284
	c-0.626,0.196-1.093,0.484-1.381,0.884c-0.295,0.379-0.448,0.794-0.448,1.259c0,0.306,0.051,0.584,0.153,0.855
	c0.1,0.278,0.279,0.574,0.524,0.896c0.271,0.314,0.566,0.626,0.931,0.938c0.363,0.307,1.074,0.899,2.157,1.753
	c1.074,0.873,1.812,1.497,2.209,1.912c0.389,0.415,0.744,0.84,1.023,1.271c0.288,0.433,0.5,0.871,0.626,1.302
	c0.127,0.433,0.195,0.863,0.195,1.314c0,0.869-0.255,1.683-0.763,2.426c-0.523,0.747-1.284,1.332-2.31,1.747
	c-1.023,0.404-2.167,0.616-3.426,0.616c-0.543,0-1.168-0.036-1.895-0.108c-0.721-0.069-1.322-0.146-1.83-0.239
	C539.918,256.15,539.299,256.007,538.546,255.83"/>
<path fill="#FFFFFF" d="M570.095,253.206c-0.151,0.686-0.294,1.557-0.456,2.616c-1.186,0.304-2.217,0.5-3.107,0.616
	c-0.888,0.103-1.759,0.162-2.632,0.162c-1.557,0-2.944-0.186-4.196-0.56c-1.235-0.379-2.302-1.023-3.189-1.962
	c-0.883-0.923-1.518-1.981-1.904-3.19c-0.382-1.193-0.575-2.456-0.575-3.784c0-1.86,0.355-3.577,1.065-5.162
	c0.711-1.599,1.775-2.843,3.206-3.756c1.423-0.907,3.234-1.365,5.426-1.365c1.134,0,2.217,0.17,3.268,0.502
	c1.016,0.328,1.879,0.819,2.572,1.497c0.678,0.676,1.201,1.506,1.581,2.496c0.373,0.989,0.566,2.074,0.566,3.242
	c0,0.448-0.049,0.879-0.116,1.302H557.35c-0.05,0.688-0.083,1.211-0.083,1.574c0,1.305,0.278,2.516,0.828,3.624
	c0.543,1.099,1.354,1.928,2.438,2.495c1.067,0.567,2.302,0.846,3.689,0.846C565.831,254.399,567.793,254.001,570.095,253.206
	 M557.494,244.321h11.129c-0.018-0.788-0.051-1.399-0.154-1.838c-0.083-0.431-0.253-0.879-0.479-1.354
	c-0.229-0.464-0.552-0.873-0.957-1.211c-0.414-0.338-0.896-0.601-1.456-0.776c-0.568-0.188-1.185-0.28-1.845-0.28
	c-0.712,0-1.389,0.101-2.029,0.304c-0.636,0.196-1.205,0.475-1.693,0.822c-0.492,0.346-0.915,0.753-1.255,1.225
	c-0.338,0.469-0.601,0.917-0.761,1.348C557.826,242.991,557.656,243.583,557.494,244.321"/>
</svg>
