<?xml version="1.0" encoding="utf-8"?>
<!-- Generator: Adobe Illustrator 16.0.0, SVG Export Plug-In . SVG Version: 6.00 Build 0)  -->
<!DOCTYPE svg PUBLIC "-//W3C//DTD SVG 1.1//EN" "http://www.w3.org/Graphics/SVG/1.1/DTD/svg11.dtd">
<svg version="1.1" id="Layer_1" xmlns="http://www.w3.org/2000/svg" xmlns:xlink="http://www.w3.org/1999/xlink" x="0px" y="0px"
	 width="300px" height="300px" viewBox="0 0 300 300" enable-background="new 0 0 300 300" xml:space="preserve">
<g>
	<path fill="#E8E8E8" d="M202.291,55.173l19.158-34.743C200.253,8.695,175.896,2.002,150,2.002v39.685
		C168.951,41.687,186.777,46.585,202.291,55.173z"/>
	<path fill="#E8E8E8" d="M243.816,95.915l34.373-19.816c-10.576-18.274-24.948-34.087-42.029-46.359l-23.104,32.247
		C225.559,70.968,236.076,82.541,243.816,95.915z"/>
	<path fill="#E8E8E8" d="M258.312,150c0,59.725-48.588,108.312-108.312,108.312c-19.226,0-37.294-5.041-52.962-13.861
		c-6.418,11.441-12.98,23.139-19.413,34.602c21.411,12.057,46.102,18.946,72.375,18.946c81.605,0,147.999-66.394,147.999-147.999
		c0-22.509-5.06-43.855-14.088-62.976l-35.908,16.887C254.609,117.904,258.312,133.527,258.312,150z"/>
	<path fill="#E8E8E8" d="M41.687,150c0-56.995,44.251-103.848,100.201-108.01l-2.972-39.574C62.466,8.104,2.002,72.122,2.002,150
		c0,52.461,27.44,98.631,68.718,124.92l21.258-33.496C61.769,222.184,41.687,188.395,41.687,150z"/>
</g>
</svg>
